<svg width="278" height="50" viewBox="0 0 278 50" fill="none" xmlns="http://www.w3.org/2000/svg">
<path d="M23.562 20.0351C25.6298 20.0351 27.2979 21.7032 27.2979 23.771C27.2979 25.8388 25.6298 27.5069 23.562 27.5069C21.4943 27.5069 19.8261 25.8388 19.8261 23.771C19.8261 21.7032 21.4943 20.0351 23.562 20.0351ZM47.5237 43.2149L32.9799 28.6711C31.7288 27.42 29.7132 27.42 28.4621 28.6711C27.211 29.9221 27.211 31.9378 28.4621 33.1889L33.2231 37.9499C30.3908 39.8787 27.0546 40.9386 23.562 40.9386C14.092 40.9386 6.39441 33.241 6.39441 23.771C6.39441 14.301 14.092 6.60339 23.562 6.60339C33.032 6.60339 40.7296 14.301 40.7296 23.771C40.7296 25.1611 40.5732 26.5338 40.2431 27.8544C39.8261 29.5746 40.8686 31.2949 42.5889 31.7119C44.3091 32.1289 46.0293 31.0863 46.4464 29.3661C46.8981 27.5416 47.124 25.665 47.124 23.771C47.124 10.7737 36.5593 0.208984 23.562 0.208984C10.5647 0.208984 0 10.7737 0 23.771C0 36.7683 10.5647 47.333 23.562 47.333C27.1241 47.333 30.5472 46.5163 33.6749 45.022L44.257 48.4972C44.5871 48.6015 44.9173 48.6536 45.2474 48.6536C46.3421 48.6536 47.3847 48.0976 47.9755 47.1245C48.7574 45.856 48.5662 44.2401 47.5063 43.1801L47.5237 43.2149Z" fill="white"/>
<path d="M64.813 1.16484C63.5619 1.16484 62.5541 2.17265 62.5541 3.42373V25.3003C62.5541 26.5861 63.5619 27.5939 64.813 27.5939C66.0641 27.5939 67.0719 26.5861 67.0719 25.335V3.40636C67.0719 2.15528 66.0641 1.14746 64.813 1.14746V1.16484Z" fill="white"/>
<path d="M82.0327 27.6111C83.2838 27.6111 84.2916 26.6033 84.2916 25.3522V5.73459H91.2073C92.4584 5.73459 93.4662 4.72677 93.4662 3.47569C93.4662 2.22461 92.4584 1.2168 91.2073 1.2168H72.8581C71.607 1.2168 70.5992 2.22461 70.5992 3.47569C70.5992 4.72677 71.607 5.73459 72.8581 5.73459H79.7738V25.3522C79.7738 26.6033 80.7816 27.6111 82.0327 27.6111Z" fill="white"/>
<path d="M126.168 22.763C126.185 22.1548 125.977 21.5814 125.56 21.147C125.125 20.6953 124.552 20.4346 123.909 20.4346C123.336 20.4346 122.78 20.6431 122.363 21.0428C121.529 21.8247 120.59 22.4329 119.548 22.8499C117.341 23.7361 114.787 23.7187 112.597 22.7978C110.964 22.1027 109.591 20.9733 108.583 19.4963C108.079 18.7665 107.697 17.9672 107.437 17.1158C107.159 16.247 107.02 15.326 107.02 14.4051C107.02 13.1714 107.263 11.9898 107.732 10.8604C108.427 9.22702 109.556 7.85431 111.033 6.84649C111.763 6.34258 112.563 5.96031 113.414 5.69967C115.412 5.07413 117.636 5.17838 119.582 5.97768C120.642 6.41209 121.598 7.03763 122.432 7.83693C123.301 8.67098 124.778 8.63623 125.612 7.76742C126.481 6.86387 126.446 5.43903 125.542 4.5876C124.309 3.38864 122.867 2.45033 121.285 1.80742C119.635 1.12975 117.897 0.782227 116.107 0.782227C114.318 0.782227 112.493 1.14712 110.808 1.85955C108.375 2.88474 106.307 4.5876 104.813 6.79436C104.066 7.88906 103.492 9.08801 103.093 10.3565C102.693 11.6597 102.484 13.0324 102.484 14.4051C102.484 16.247 102.849 18.0193 103.562 19.7048C104.587 22.1375 106.29 24.2052 108.497 25.6996C109.591 26.4467 110.79 27.0202 112.059 27.4198C115.03 28.3407 118.314 28.2191 121.198 27.0549C122.762 26.4294 124.187 25.5084 125.421 24.3616C125.855 23.9446 126.116 23.3886 126.133 22.7978L126.168 22.763Z" fill="white"/>
<path d="M150.529 18.002C150.529 16.6119 150.251 15.2566 149.695 13.9881C148.896 12.1637 147.593 10.5998 145.907 9.48773C145.073 8.93169 144.152 8.49729 143.179 8.2019C140.851 7.48948 138.297 7.61111 136.055 8.54942C134.196 9.31397 132.615 10.5998 131.468 12.2505C130.894 13.0846 130.443 13.9881 130.147 14.9438C129.834 15.9343 129.678 16.9595 129.678 18.002V18.1063C129.695 20.7996 130.79 23.3365 132.719 25.2479C134.682 27.194 137.306 28.2539 140.086 28.2539C145.838 28.2539 150.512 23.6666 150.512 18.002H150.529ZM134.178 18.002C134.178 17.2375 134.335 16.4903 134.63 15.7779C135.065 14.7527 135.812 13.8839 136.767 13.241C137.254 12.9282 137.775 12.6849 138.314 12.5112C139.635 12.1115 141.111 12.181 142.397 12.7023C143.457 13.1367 144.361 13.8665 145.004 14.8048C145.317 15.274 145.577 15.7779 145.734 16.2992C145.907 16.8378 145.994 17.4112 145.994 17.9846V18.7666H145.942C145.542 21.5641 143.075 23.7188 140.086 23.7188C136.82 23.7188 134.178 21.1471 134.178 17.9846V18.002Z" fill="white"/>
<path d="M168.357 8.89696C165.56 7.24623 162.189 7.1941 159.356 8.77533L159.131 8.89696L158.992 8.68845C158.575 7.9934 157.862 7.59375 157.063 7.59375C155.812 7.59375 154.804 8.60156 154.804 9.85265V25.3521C154.804 26.6032 155.812 27.611 157.063 27.611C158.314 27.611 159.322 26.6032 159.322 25.3521V16.3861C159.322 13.9187 161.198 12.5286 163.058 12.2332C164.934 11.9378 167.176 12.7371 167.958 15.135C168.079 15.5346 168.149 15.9517 168.149 16.3861V25.5607C168.27 26.7422 169.226 27.6284 170.408 27.6284C171.589 27.6284 172.545 26.7422 172.649 25.5607V25.3695V25.2826V16.3861C172.649 13.2757 171.033 10.4956 168.357 8.91434V8.89696Z" fill="white"/>
<path d="M187.471 7.35018C185.977 7.35018 184.482 7.66295 183.04 8.30587C179.252 9.99135 176.906 13.5708 176.906 17.6368C176.906 19.0269 177.184 20.3823 177.74 21.6681C178.54 23.51 179.86 25.0738 181.563 26.1859C182.415 26.7419 183.335 27.1763 184.309 27.4717C185.316 27.7671 186.359 27.9235 187.419 27.9235C188.722 27.9235 189.991 27.6976 191.189 27.2285C192.284 26.8114 193.292 26.2206 194.196 25.4735L194.352 25.3171C194.856 24.8827 195.134 24.2745 195.134 23.6142C195.134 22.3631 194.126 21.3553 192.875 21.3553C192.336 21.3553 191.832 21.5465 191.398 21.9114L191.207 22.0851C190.72 22.4674 190.182 22.7802 189.591 22.9887C188.149 23.5273 186.481 23.51 185.056 22.9192C183.978 22.4848 183.075 21.755 182.415 20.8167C182.084 20.3475 181.841 19.8436 181.667 19.3223C181.494 18.7663 181.407 18.2103 181.407 17.6195C181.407 15.3432 182.745 13.3449 184.882 12.3893C187.071 11.4162 189.504 11.7463 191.294 13.2233L191.485 13.3797C191.902 13.762 192.441 13.9705 192.979 13.9705C194.23 13.9705 195.238 12.9627 195.238 11.7116C195.238 11.0687 194.977 10.4779 194.491 10.0435L194.3 9.86972C192.336 8.18423 189.921 7.31543 187.454 7.31543L187.471 7.35018Z" fill="white"/>
<path d="M208.513 7.62793C205.907 7.62793 203.457 8.68787 201.598 10.634C199.721 12.5801 198.696 15.1518 198.696 17.8798C198.696 19.2526 198.922 20.5558 199.356 21.7721C199.704 22.7104 200.173 23.5618 200.764 24.3264C201.215 24.9172 201.737 25.4558 202.31 25.925C203.196 26.6374 204.222 27.1934 205.334 27.5583C207.558 28.2881 210.234 28.375 212.753 27.4019C213.9 26.9502 214.943 26.3246 215.846 25.5601L215.985 25.4211C216.472 24.9867 216.732 24.3959 216.732 23.753C216.732 22.5019 215.725 21.4941 214.473 21.4941C213.935 21.4941 213.396 21.7026 212.979 22.0849L212.788 22.2412C212.301 22.6235 211.711 22.971 211.102 23.1969C210.425 23.4576 209.678 23.614 209.017 23.614C208.044 23.614 207.158 23.4576 206.394 23.1448C205.872 22.9363 205.42 22.6583 205.021 22.3281C204.447 21.8416 203.996 21.2161 203.683 20.4689C203.353 19.7043 203.196 18.8355 203.196 17.8798C203.196 14.7695 205.629 12.1457 208.513 12.1457C210.772 12.1457 212.562 13.2752 213.431 15.256L213.587 15.6209H207.506C206.255 15.6209 205.247 16.6288 205.247 17.8798C205.247 19.1309 206.255 20.1387 207.506 20.1387H216.194C217.445 20.1387 218.453 19.1309 218.453 17.8798C218.453 12.0415 214.178 7.64531 208.513 7.64531V7.62793Z" fill="white"/>
<path d="M232.649 8.47949C230.772 8.47949 228.948 9.00078 227.367 10.0086L227.123 10.165L227.002 9.90433C226.619 9.10503 225.837 8.6185 224.969 8.6185C223.718 8.6185 222.71 9.62631 222.71 10.8774V11.138V33.6922C222.71 34.9433 223.718 35.9511 224.969 35.9511C226.22 35.9511 227.228 34.9433 227.228 33.6922V26.707L227.627 26.9329C229.139 27.8365 230.894 28.3056 232.666 28.3056C238.122 28.3056 242.571 23.8574 242.571 18.4013C242.571 12.9452 238.122 8.49687 232.666 8.49687L232.649 8.47949ZM232.649 23.8052C229.66 23.8052 227.228 21.3726 227.228 18.3839C227.228 15.3952 229.66 12.9625 232.649 12.9625C235.638 12.9625 238.07 15.3952 238.07 18.3839C238.07 21.3726 235.638 23.8052 232.649 23.8052Z" fill="white"/>
<path d="M249.99 26.0294C251.502 27.3326 253.674 27.8539 256.263 27.5064L256.472 27.4716C257.566 27.3153 258.4 26.3596 258.4 25.2475C258.4 23.9964 257.393 22.9886 256.141 22.9886C256.037 22.9886 255.933 22.9886 255.846 23.0234L255.585 23.0581C254.334 23.1971 253.483 23.0581 252.944 22.5889C252.492 22.1893 252.267 21.5811 252.267 20.7471V11.781H256.002C257.254 11.781 258.261 10.7732 258.261 9.52211C258.261 8.27103 257.254 7.26322 256.002 7.26322H252.267V2.25889C252.267 1.00781 251.259 0 250.008 0C248.757 0 247.749 1.00781 247.749 2.25889V7.26322H245.959C244.708 7.26322 243.7 8.27103 243.7 9.52211C243.7 10.7732 244.708 11.781 245.959 11.781H247.749V20.6254C247.749 22.8843 248.548 24.8131 249.973 26.0468L249.99 26.0294Z" fill="white"/>
<path d="M269.486 15.3948C269 15.2732 268.617 15.1863 268.339 15.0994C267.94 14.9604 266.984 14.5782 266.793 14.0916C266.776 14.0221 266.758 13.9526 266.741 13.831C266.741 12.8405 267.14 12.1803 269.121 12.1803C270.581 12.1803 271.571 12.6668 272.353 13.0491C272.579 13.1533 272.788 13.2576 273.014 13.3445C273.309 13.4835 273.622 13.553 273.934 13.5703C273.934 13.5703 273.987 13.5703 274.021 13.5703C275.22 13.5703 276.228 12.5625 276.228 11.3115C276.228 10.4774 275.759 9.71285 275.012 9.3132C274.994 9.3132 274.977 9.27845 274.942 9.26107C274.143 8.84404 273.396 8.53127 272.683 8.27063C269.729 7.24544 266.619 7.48871 264.586 8.93092C263.04 10.0256 262.223 11.6937 262.223 13.7615C262.223 16.8371 264.412 18.8701 268.704 19.8431C270.286 20.1733 272.214 20.7467 272.527 21.546C272.544 21.6155 272.579 21.7024 272.579 21.8588C272.579 22.9013 271.606 23.5095 269.903 23.5095C267.905 23.5095 266.463 22.7797 265.229 21.963C265.194 21.963 265.16 21.963 265.142 21.9283C264.777 21.685 264.343 21.5634 263.926 21.5634C262.675 21.5634 261.667 22.5712 261.667 23.8223C261.667 24.6737 262.153 25.4382 262.918 25.8205C265.316 27.3496 267.471 28.0099 269.921 28.0099C274.16 28.0099 277.114 25.473 277.114 21.8588C277.114 17.1846 272.162 16.003 269.504 15.3775L269.486 15.3948Z" fill="white"/>
<path d="M72.1804 44.5697C72.1804 47.402 70.3733 49.4697 67.3673 49.4697C64.5697 49.4697 62.5541 47.8016 62.5541 44.6913H64.5871C64.5871 46.5679 65.4906 47.5236 67.3499 47.5236C69.2091 47.5236 70.1127 46.2204 70.1127 44.5697V40.2256H66.8112V38.2969H72.1804V44.5697Z" fill="white"/>
<path d="M85.8381 47.1761H80.104L79.1657 49.2438H76.9242L81.8416 38.2969H84.1005L89.018 49.2438H86.7591L85.8381 47.1761ZM82.9711 40.5905L80.9381 45.2473H85.0041L82.9711 40.5905Z" fill="white"/>
<path d="M99.5651 46.0119H96.4722V49.2438H94.4044V38.2969C96.1247 38.2969 97.8449 38.2969 99.5651 38.2969C104.917 38.2969 104.934 46.0466 99.5651 46.0466V46.0119ZM96.4722 44.1179H99.5651C102.206 44.1179 102.189 40.243 99.5651 40.243H96.4722V44.1179Z" fill="white"/>
<path d="M116.333 47.1761H110.599L109.661 49.2438H107.419L112.337 38.2969H114.595L119.513 49.2438H117.254L116.333 47.1761ZM113.466 40.5905L111.433 45.2473H115.499L113.466 40.5905Z" fill="white"/>
<path d="M132.024 38.2803H134.092V49.2446H132.806L127.054 41.8598V49.2446H124.987V38.2976H126.655L132.024 45.0917V38.2803Z" fill="white"/>
<path d="M272.997 48.8468C272.182 48.8468 271.482 48.7078 270.897 48.4298C270.322 48.1518 269.8 47.7348 269.33 47.1787L270.624 45.8845C270.921 46.2776 271.266 46.5843 271.659 46.8048C272.053 47.0158 272.532 47.1212 273.098 47.1212C273.606 47.1212 274.008 47.0205 274.305 46.8192C274.612 46.6179 274.766 46.3399 274.766 45.9852C274.766 45.6784 274.679 45.4291 274.507 45.2374C274.334 45.0457 274.104 44.8827 273.817 44.7485C273.539 44.6143 273.227 44.4944 272.882 44.389C272.546 44.2739 272.206 44.1445 271.861 44.0007C271.525 43.8569 271.214 43.6795 270.926 43.4686C270.648 43.2481 270.423 42.9701 270.25 42.6346C270.078 42.2894 269.991 41.858 269.991 41.3404C269.991 40.7268 270.14 40.2043 270.437 39.7729C270.734 39.3415 271.142 39.0108 271.659 38.7807C272.177 38.5506 272.762 38.4355 273.414 38.4355C274.104 38.4355 274.727 38.565 275.283 38.8238C275.839 39.0827 276.295 39.4182 276.649 39.8304L275.355 41.1247C275.058 40.7987 274.751 40.559 274.435 40.4056C274.128 40.2522 273.778 40.1756 273.385 40.1756C272.935 40.1756 272.58 40.2618 272.321 40.4344C272.062 40.607 271.933 40.8562 271.933 41.1822C271.933 41.4602 272.019 41.6855 272.192 41.858C272.364 42.0306 272.589 42.1792 272.867 42.3038C273.155 42.4285 273.467 42.5483 273.802 42.6633C274.147 42.7784 274.488 42.9078 274.823 43.0516C275.168 43.1954 275.48 43.3823 275.758 43.6124C276.045 43.8425 276.276 44.1397 276.448 44.504C276.621 44.8587 276.707 45.2997 276.707 45.827C276.707 46.7665 276.376 47.5047 275.715 48.0415C275.053 48.5784 274.147 48.8468 272.997 48.8468Z" fill="white"/>
<path d="M259.096 48.8468C258.281 48.8468 257.581 48.7078 256.996 48.4298C256.421 48.1518 255.899 47.7348 255.429 47.1787L256.723 45.8845C257.02 46.2776 257.366 46.5843 257.759 46.8048C258.152 47.0158 258.631 47.1212 259.197 47.1212C259.705 47.1212 260.107 47.0205 260.405 46.8192C260.711 46.6179 260.865 46.3399 260.865 45.9852C260.865 45.6784 260.778 45.4291 260.606 45.2374C260.433 45.0457 260.203 44.8827 259.916 44.7485C259.638 44.6143 259.326 44.4944 258.981 44.389C258.645 44.2739 258.305 44.1445 257.96 44.0007C257.624 43.8569 257.313 43.6795 257.025 43.4686C256.747 43.2481 256.522 42.9701 256.349 42.6346C256.177 42.2894 256.09 41.858 256.09 41.3404C256.09 40.7268 256.239 40.2043 256.536 39.7729C256.833 39.3415 257.241 39.0108 257.759 38.7807C258.276 38.5506 258.861 38.4355 259.513 38.4355C260.203 38.4355 260.826 38.565 261.382 38.8238C261.938 39.0827 262.394 39.4182 262.749 39.8304L261.454 41.1247C261.157 40.7987 260.85 40.559 260.534 40.4056C260.227 40.2522 259.877 40.1756 259.484 40.1756C259.034 40.1756 258.679 40.2618 258.42 40.4344C258.161 40.607 258.032 40.8562 258.032 41.1822C258.032 41.4602 258.118 41.6855 258.291 41.858C258.463 42.0306 258.689 42.1792 258.967 42.3038C259.254 42.4285 259.566 42.5483 259.901 42.6633C260.246 42.7784 260.587 42.9078 260.922 43.0516C261.267 43.1954 261.579 43.3823 261.857 43.6124C262.145 43.8425 262.375 44.1397 262.547 44.504C262.72 44.8587 262.806 45.2997 262.806 45.827C262.806 46.7665 262.475 47.5047 261.814 48.0415C261.152 48.5784 260.246 48.8468 259.096 48.8468Z" fill="white"/>
<path d="M241.528 48.7031V38.5938H243.484V48.7031H241.528ZM242.966 48.7031V46.9774H248.56V48.7031H242.966ZM242.966 44.3746V42.7065H248.057V44.3746H242.966ZM242.966 40.3194V38.5938H248.488V40.3194H242.966Z" fill="white"/>
<path d="M227.627 48.7031V38.5938H228.993L229.583 40.5495V48.7031H227.627ZM234.616 48.7031L228.619 40.9377L228.993 38.5938L234.99 46.3591L234.616 48.7031ZM234.616 48.7031L234.055 46.8049V38.5938H236.025V48.7031H234.616Z" fill="white"/>
<path d="M218.939 48.7031V38.5938H220.895V48.7031H218.939Z" fill="white"/>
<path d="M208.705 48.8468C207.89 48.8468 207.191 48.7078 206.606 48.4298C206.031 48.1518 205.508 47.7348 205.038 47.1787L206.332 45.8845C206.63 46.2776 206.975 46.5843 207.368 46.8048C207.761 47.0158 208.24 47.1212 208.806 47.1212C209.314 47.1212 209.717 47.0205 210.014 46.8192C210.321 46.6179 210.474 46.3399 210.474 45.9852C210.474 45.6784 210.388 45.4291 210.215 45.2374C210.043 45.0457 209.813 44.8827 209.525 44.7485C209.247 44.6143 208.935 44.4944 208.59 44.389C208.255 44.2739 207.914 44.1445 207.569 44.0007C207.234 43.8569 206.922 43.6795 206.634 43.4686C206.356 43.2481 206.131 42.9701 205.959 42.6346C205.786 42.2894 205.7 41.858 205.7 41.3404C205.7 40.7268 205.848 40.2043 206.146 39.7729C206.443 39.3415 206.85 39.0108 207.368 38.7807C207.886 38.5506 208.47 38.4355 209.122 38.4355C209.813 38.4355 210.436 38.565 210.992 38.8238C211.548 39.0827 212.003 39.4182 212.358 39.8304L211.064 41.1247C210.766 40.7987 210.46 40.559 210.143 40.4056C209.836 40.2522 209.487 40.1756 209.093 40.1756C208.643 40.1756 208.288 40.2618 208.029 40.4344C207.771 40.607 207.641 40.8562 207.641 41.1822C207.641 41.4602 207.727 41.6855 207.9 41.858C208.072 42.0306 208.298 42.1792 208.576 42.3038C208.863 42.4285 209.175 42.5483 209.511 42.6633C209.856 42.7784 210.196 42.9078 210.532 43.0516C210.877 43.1954 211.188 43.3823 211.466 43.6124C211.754 43.8425 211.984 44.1397 212.156 44.504C212.329 44.8587 212.415 45.2997 212.415 45.827C212.415 46.7665 212.085 47.5047 211.423 48.0415C210.762 48.5784 209.856 48.8468 208.705 48.8468Z" fill="white"/>
<path d="M195.25 48.8469C194.454 48.8469 193.745 48.6743 193.122 48.3292C192.508 47.9745 192.024 47.4903 191.669 46.8768C191.315 46.2632 191.137 45.5682 191.137 44.7916V38.5938H193.093V44.8492C193.093 45.2997 193.184 45.688 193.366 46.014C193.558 46.3399 193.817 46.594 194.143 46.7761C194.478 46.9487 194.847 47.0349 195.25 47.0349C195.662 47.0349 196.027 46.9487 196.343 46.7761C196.659 46.594 196.909 46.3399 197.091 46.014C197.282 45.688 197.378 45.3045 197.378 44.8635V38.5938H199.348V44.806C199.348 45.5825 199.171 46.2776 198.816 46.8911C198.462 47.4951 197.978 47.9745 197.364 48.3292C196.76 48.6743 196.055 48.8469 195.25 48.8469Z" fill="white"/>
<path d="M178.674 48.7031V47.1068H181.306C181.776 47.1068 182.14 46.963 182.399 46.6754C182.667 46.3878 182.802 46.0475 182.802 45.6544C182.802 45.386 182.744 45.1415 182.629 44.9211C182.514 44.7006 182.341 44.528 182.111 44.4034C181.891 44.2691 181.622 44.202 181.306 44.202H178.674V42.6202H181.09C181.493 42.6202 181.814 42.5196 182.054 42.3182C182.303 42.1169 182.428 41.8149 182.428 41.4123C182.428 41 182.303 40.6933 182.054 40.4919C181.814 40.2906 181.493 40.19 181.09 40.19H178.674V38.5938H181.32C181.992 38.5938 182.552 38.7184 183.003 38.9676C183.463 39.2073 183.808 39.5285 184.038 39.9311C184.268 40.3242 184.383 40.7556 184.383 41.2253C184.383 41.8005 184.206 42.2991 183.851 42.7209C183.506 43.1331 182.998 43.4399 182.327 43.6412L182.413 43.0085C183.161 43.2194 183.736 43.5693 184.139 44.0582C184.551 44.5376 184.757 45.1176 184.757 45.7982C184.757 46.3351 184.623 46.824 184.355 47.265C184.096 47.6964 183.712 48.0464 183.204 48.3148C182.706 48.5736 182.097 48.7031 181.378 48.7031H178.674ZM177.236 48.7031V38.5938H179.178V48.7031H177.236Z" fill="white"/>
<path d="M162.92 45.9386V44.9224H164.483C164.802 44.9224 165.048 44.8425 165.221 44.6827C165.4 44.5165 165.489 44.2897 165.489 44.0021C165.489 43.74 165.4 43.5227 165.221 43.3501C165.048 43.1712 164.802 43.0817 164.483 43.0817H162.92V42.0176H164.598C165.032 42.0176 165.412 42.1039 165.738 42.2764C166.071 42.4426 166.326 42.6727 166.505 42.9667C166.691 43.2607 166.783 43.5994 166.783 43.9829C166.783 44.3791 166.691 44.7243 166.505 45.0183C166.326 45.3059 166.071 45.5327 165.738 45.6989C165.406 45.8587 165.019 45.9386 164.578 45.9386H162.92ZM161.961 48.7571V42.0176H163.265V48.7571H161.961ZM165.643 48.7571L163.418 45.8427L164.617 45.4688L167.224 48.7571H165.643Z" fill="white"/>
<path d="M156.01 48.8626C155.517 48.8626 155.057 48.7731 154.629 48.5941C154.207 48.4152 153.837 48.1691 153.517 47.8559C153.204 47.5364 152.958 47.1657 152.779 46.7439C152.6 46.3157 152.51 45.8587 152.51 45.373C152.51 44.8872 152.597 44.4366 152.769 44.0212C152.948 43.5994 153.194 43.2319 153.507 42.9187C153.827 42.5992 154.198 42.3531 154.62 42.1805C155.041 42.0016 155.498 41.9121 155.99 41.9121C156.489 41.9121 156.949 42.0016 157.371 42.1805C157.793 42.3531 158.16 42.5992 158.473 42.9187C158.793 43.2319 159.042 43.5994 159.221 44.0212C159.4 44.443 159.49 44.8968 159.49 45.3825C159.49 45.8683 159.4 46.322 159.221 46.7439C159.042 47.1657 158.793 47.5364 158.473 47.8559C158.16 48.1691 157.793 48.4152 157.371 48.5941C156.955 48.7731 156.502 48.8626 156.01 48.8626ZM155.99 47.645C156.425 47.645 156.802 47.5492 157.122 47.3574C157.441 47.1657 157.69 46.9005 157.869 46.5617C158.055 46.223 158.147 45.8267 158.147 45.373C158.147 45.0406 158.096 44.737 157.994 44.4622C157.892 44.1874 157.745 43.9509 157.553 43.7528C157.361 43.5483 157.134 43.3917 156.872 43.283C156.61 43.1744 156.316 43.12 155.99 43.12C155.569 43.12 155.195 43.2159 154.869 43.4077C154.549 43.593 154.297 43.855 154.111 44.1938C153.932 44.5325 153.843 44.9256 153.843 45.373C153.843 45.7117 153.894 46.0217 153.996 46.3029C154.105 46.5841 154.252 46.8238 154.437 47.0219C154.629 47.22 154.856 47.3734 155.118 47.4821C155.386 47.5907 155.677 47.645 155.99 47.645Z" fill="white"/>
<path d="M145.959 48.7571V42.0176H147.263V48.7571H145.959ZM146.918 45.9961V44.8361H150.312V45.9961H146.918ZM146.918 43.168V42.0176H150.475V43.168H146.918Z" fill="white"/>
</svg>
