<svg width="161" height="30" viewBox="0 0 161 30" fill="none" xmlns="http://www.w3.org/2000/svg">
<path d="M13.56 12.41C14.75 12.41 15.71 13.37 15.71 14.56C15.71 15.75 14.75 16.71 13.56 16.71C12.37 16.71 11.41 15.75 11.41 14.56C11.41 13.37 12.37 12.41 13.56 12.41ZM27.35 25.75L18.98 17.38C18.26 16.66 17.1 16.66 16.38 17.38C15.66 18.1 15.66 19.26 16.38 19.98L19.12 22.72C17.49 23.83 15.57 24.44 13.56 24.44C8.11 24.44 3.68 20.01 3.68 14.56C3.68 9.11 8.11 4.68 13.56 4.68C19.01 4.68 23.44 9.11 23.44 14.56C23.44 15.36 23.35 16.15 23.16 16.91C22.92 17.9 23.52 18.89 24.51 19.13C25.5 19.37 26.49 18.77 26.73 17.78C26.99 16.73 27.12 15.65 27.12 14.56C27.12 7.08 21.04 1 13.56 1C6.08 1 0 7.08 0 14.56C0 22.04 6.08 28.12 13.56 28.12C15.61 28.12 17.58 27.65 19.38 26.79L25.47 28.79C25.66 28.85 25.85 28.88 26.04 28.88C26.67 28.88 27.27 28.56 27.61 28C28.06 27.27 27.95 26.34 27.34 25.73L27.35 25.75Z" fill="#004098"/>
<path d="M37.3 1.55C36.58 1.55 36 2.13 36 2.85V15.44C36 16.18 36.58 16.76 37.3 16.76C38.02 16.76 38.6 16.18 38.6 15.46V2.84C38.6 2.12 38.02 1.54 37.3 1.54V1.55Z" fill="#004098"/>
<path d="M47.21 16.77C47.93 16.77 48.51 16.19 48.51 15.47V4.18H52.49C53.21 4.18 53.79 3.6 53.79 2.88C53.79 2.16 53.21 1.58 52.49 1.58H41.93C41.21 1.58 40.63 2.16 40.63 2.88C40.63 3.6 41.21 4.18 41.93 4.18H45.91V15.47C45.91 16.19 46.49 16.77 47.21 16.77Z" fill="#004098"/>
<path d="M72.61 13.98C72.62 13.63 72.5 13.3 72.26 13.05C72.01 12.79 71.68 12.64 71.31 12.64C70.98 12.64 70.66 12.76 70.42 12.99C69.94 13.44 69.4 13.79 68.8 14.03C67.53 14.54 66.06 14.53 64.8 14C63.86 13.6 63.07 12.95 62.49 12.1C62.2 11.68 61.98 11.22 61.83 10.73C61.67 10.23 61.59 9.7 61.59 9.17C61.59 8.46 61.73 7.78 62 7.13C62.4 6.19 63.05 5.4 63.9 4.82C64.32 4.53 64.78 4.31 65.27 4.16C66.42 3.8 67.7 3.86 68.82 4.32C69.43 4.57 69.98 4.93 70.46 5.39C70.96 5.87 71.81 5.85 72.29 5.35C72.79 4.83 72.77 4.01 72.25 3.52C71.54 2.83 70.71 2.29 69.8 1.92C68.85 1.53 67.85 1.33 66.82 1.33C65.79 1.33 64.74 1.54 63.77 1.95C62.37 2.54 61.18 3.52 60.32 4.79C59.89 5.42 59.56 6.11 59.33 6.84C59.1 7.59 58.98 8.38 58.98 9.17C58.98 10.23 59.19 11.25 59.6 12.22C60.19 13.62 61.17 14.81 62.44 15.67C63.07 16.1 63.76 16.43 64.49 16.66C66.2 17.19 68.09 17.12 69.75 16.45C70.65 16.09 71.47 15.56 72.18 14.9C72.43 14.66 72.58 14.34 72.59 14L72.61 13.98Z" fill="#004098"/>
<path d="M86.63 11.24C86.63 10.44 86.47 9.66 86.15 8.93C85.69 7.88 84.94 6.98 83.97 6.34C83.49 6.02 82.96 5.77 82.4 5.6C81.06 5.19 79.59 5.26 78.3 5.8C77.23 6.24 76.32 6.98 75.66 7.93C75.33 8.41 75.07 8.93 74.9 9.48C74.72 10.05 74.63 10.64 74.63 11.24V11.3C74.64 12.85 75.27 14.31 76.38 15.41C77.51 16.53 79.02 17.14 80.62 17.14C83.93 17.14 86.62 14.5 86.62 11.24H86.63ZM77.22 11.24C77.22 10.8 77.31 10.37 77.48 9.96C77.73 9.37 78.16 8.87 78.71 8.5C78.99 8.32 79.29 8.18 79.6 8.08C80.36 7.85 81.21 7.89 81.95 8.19C82.56 8.44 83.08 8.86 83.45 9.4C83.63 9.67 83.78 9.96 83.87 10.26C83.97 10.57 84.02 10.9 84.02 11.23V11.68H83.99C83.76 13.29 82.34 14.53 80.62 14.53C78.74 14.53 77.22 13.05 77.22 11.23V11.24Z" fill="#004098"/>
<path d="M96.89 6C95.28 5.05 93.34 5.02 91.71 5.93L91.58 6L91.5 5.88C91.26 5.48 90.85 5.25 90.39 5.25C89.67 5.25 89.09 5.83 89.09 6.55V15.47C89.09 16.19 89.67 16.77 90.39 16.77C91.11 16.77 91.69 16.19 91.69 15.47V10.31C91.69 8.89 92.77 8.09 93.84 7.92C94.92 7.75 96.21 8.21 96.66 9.59C96.73 9.82 96.77 10.06 96.77 10.31V15.59C96.84 16.27 97.39 16.78 98.07 16.78C98.75 16.78 99.3 16.27 99.36 15.59V15.48V15.43V10.31C99.36 8.52 98.43 6.92 96.89 6.01V6Z" fill="#004098"/>
<path d="M107.89 5.11C107.03 5.11 106.17 5.29 105.34 5.66C103.16 6.63 101.81 8.69 101.81 11.03C101.81 11.83 101.97 12.61 102.29 13.35C102.75 14.41 103.51 15.31 104.49 15.95C104.98 16.27 105.51 16.52 106.07 16.69C106.65 16.86 107.25 16.95 107.86 16.95C108.61 16.95 109.34 16.82 110.03 16.55C110.66 16.31 111.24 15.97 111.76 15.54L111.85 15.45C112.14 15.2 112.3 14.85 112.3 14.47C112.3 13.75 111.72 13.17 111 13.17C110.69 13.17 110.4 13.28 110.15 13.49L110.04 13.59C109.76 13.81 109.45 13.99 109.11 14.11C108.28 14.42 107.32 14.41 106.5 14.07C105.88 13.82 105.36 13.4 104.98 12.86C104.79 12.59 104.65 12.3 104.55 12C104.45 11.68 104.4 11.36 104.4 11.02C104.4 9.71 105.17 8.56 106.4 8.01C107.66 7.45 109.06 7.64 110.09 8.49L110.2 8.58C110.44 8.8 110.75 8.92 111.06 8.92C111.78 8.92 112.36 8.34 112.36 7.62C112.36 7.25 112.21 6.91 111.93 6.66L111.82 6.56C110.69 5.59 109.3 5.09 107.88 5.09L107.89 5.11Z" fill="#004098"/>
<path d="M120 5.27C118.5 5.27 117.09 5.88 116.02 7C114.94 8.12 114.35 9.6 114.35 11.17C114.35 11.96 114.48 12.71 114.73 13.41C114.93 13.95 115.2 14.44 115.54 14.88C115.8 15.22 116.1 15.53 116.43 15.8C116.94 16.21 117.53 16.53 118.17 16.74C119.45 17.16 120.99 17.21 122.44 16.65C123.1 16.39 123.7 16.03 124.22 15.59L124.3 15.51C124.58 15.26 124.73 14.92 124.73 14.55C124.73 13.83 124.15 13.25 123.43 13.25C123.12 13.25 122.81 13.37 122.57 13.59L122.46 13.68C122.18 13.9 121.84 14.1 121.49 14.23C121.1 14.38 120.67 14.47 120.29 14.47C119.73 14.47 119.22 14.38 118.78 14.2C118.48 14.08 118.22 13.92 117.99 13.73C117.66 13.45 117.4 13.09 117.22 12.66C117.03 12.22 116.94 11.72 116.94 11.17C116.94 9.38 118.34 7.87 120 7.87C121.3 7.87 122.33 8.52 122.83 9.66L122.92 9.87H119.42C118.7 9.87 118.12 10.45 118.12 11.17C118.12 11.89 118.7 12.47 119.42 12.47H124.42C125.14 12.47 125.72 11.89 125.72 11.17C125.72 7.81 123.26 5.28 120 5.28V5.27Z" fill="#004098"/>
<path d="M133.89 5.76C132.81 5.76 131.76 6.06 130.85 6.64L130.71 6.73L130.64 6.58C130.42 6.12 129.97 5.84 129.47 5.84C128.75 5.84 128.17 6.42 128.17 7.14V7.29V20.27C128.17 20.99 128.75 21.57 129.47 21.57C130.19 21.57 130.77 20.99 130.77 20.27V16.25L131 16.38C131.87 16.9 132.88 17.17 133.9 17.17C137.04 17.17 139.6 14.61 139.6 11.47C139.6 8.33 137.04 5.77 133.9 5.77L133.89 5.76ZM133.89 14.58C132.17 14.58 130.77 13.18 130.77 11.46C130.77 9.74 132.17 8.34 133.89 8.34C135.61 8.34 137.01 9.74 137.01 11.46C137.01 13.18 135.61 14.58 133.89 14.58Z" fill="#004098"/>
<path d="M143.87 15.86C144.74 16.61 145.99 16.91 147.48 16.71L147.6 16.69C148.23 16.6 148.71 16.05 148.71 15.41C148.71 14.69 148.13 14.11 147.41 14.11C147.35 14.11 147.29 14.11 147.24 14.13L147.09 14.15C146.37 14.23 145.88 14.15 145.57 13.88C145.31 13.65 145.18 13.3 145.18 12.82V7.66H147.33C148.05 7.66 148.63 7.08 148.63 6.36C148.63 5.64 148.05 5.06 147.33 5.06H145.18V2.18C145.18 1.46 144.6 0.879999 143.88 0.879999C143.16 0.879999 142.58 1.46 142.58 2.18V5.06H141.55C140.83 5.06 140.25 5.64 140.25 6.36C140.25 7.08 140.83 7.66 141.55 7.66H142.58V12.75C142.58 14.05 143.04 15.16 143.86 15.87L143.87 15.86Z" fill="#004098"/>
<path d="M155.09 9.74C154.81 9.67 154.59 9.62 154.43 9.57C154.2 9.49 153.65 9.27 153.54 8.99C153.53 8.95 153.52 8.91 153.51 8.84C153.51 8.27 153.74 7.89 154.88 7.89C155.72 7.89 156.29 8.17 156.74 8.39C156.87 8.45 156.99 8.51 157.12 8.56C157.29 8.64 157.47 8.68 157.65 8.69C157.65 8.69 157.68 8.69 157.7 8.69C158.39 8.69 158.97 8.11 158.97 7.39C158.97 6.91 158.7 6.47 158.27 6.24C158.26 6.24 158.25 6.22 158.23 6.21C157.77 5.97 157.34 5.79 156.93 5.64C155.23 5.05 153.44 5.19 152.27 6.02C151.38 6.65 150.91 7.61 150.91 8.8C150.91 10.57 152.17 11.74 154.64 12.3C155.55 12.49 156.66 12.82 156.84 13.28C156.85 13.32 156.87 13.37 156.87 13.46C156.87 14.06 156.31 14.41 155.33 14.41C154.18 14.41 153.35 13.99 152.64 13.52C152.62 13.52 152.6 13.52 152.59 13.5C152.38 13.36 152.13 13.29 151.89 13.29C151.17 13.29 150.59 13.87 150.59 14.59C150.59 15.08 150.87 15.52 151.31 15.74C152.69 16.62 153.93 17 155.34 17C157.78 17 159.48 15.54 159.48 13.46C159.48 10.77 156.63 10.09 155.1 9.73L155.09 9.74Z" fill="#004098"/>
<path d="M41.54 26.53C41.54 28.16 40.5 29.35 38.77 29.35C37.16 29.35 36 28.39 36 26.6H37.17C37.17 27.68 37.69 28.23 38.76 28.23C39.83 28.23 40.35 27.48 40.35 26.53V24.03H38.45V22.92H41.54V26.53Z" fill="#004098"/>
<path d="M49.4001 28.03H46.1001L45.5601 29.22H44.2701L47.1001 22.92H48.4001L51.2301 29.22H49.9301L49.4001 28.03ZM47.7501 24.24L46.5801 26.92H48.9201L47.7501 24.24Z" fill="#004098"/>
<path d="M57.3 27.36H55.52V29.22H54.33V22.92C55.32 22.92 56.31 22.92 57.3 22.92C60.38 22.92 60.39 27.38 57.3 27.38V27.36ZM55.52 26.27H57.3C58.82 26.27 58.81 24.04 57.3 24.04H55.52V26.27Z" fill="#004098"/>
<path d="M66.95 28.03H63.65L63.11 29.22H61.82L64.65 22.92H65.95L68.78 29.22H67.48L66.95 28.03ZM65.3 24.24L64.13 26.92H66.47L65.3 24.24Z" fill="#004098"/>
<path d="M75.9801 22.91H77.1701V29.22H76.4301L73.1201 24.97V29.22H71.9301V22.92H72.8901L75.9801 26.83V22.91Z" fill="#004098"/>
<path d="M157.11 28.9917C156.641 28.9917 156.239 28.9117 155.902 28.7517C155.571 28.5917 155.27 28.3517 155 28.0317L155.745 27.2869C155.916 27.5131 156.115 27.6896 156.341 27.8165C156.567 27.9379 156.843 27.9986 157.168 27.9986C157.461 27.9986 157.692 27.9407 157.863 27.8248C158.04 27.709 158.128 27.549 158.128 27.3448C158.128 27.1683 158.079 27.0248 157.979 26.9145C157.88 26.8041 157.748 26.7103 157.582 26.6331C157.422 26.5559 157.243 26.4869 157.044 26.4262C156.851 26.36 156.655 26.2855 156.457 26.2028C156.263 26.12 156.084 26.0179 155.919 25.8965C155.759 25.7696 155.629 25.6096 155.53 25.4165C155.43 25.2179 155.381 24.9696 155.381 24.6717C155.381 24.3186 155.466 24.0179 155.637 23.7696C155.808 23.5214 156.043 23.331 156.341 23.1986C156.639 23.0662 156.975 23 157.35 23C157.748 23 158.106 23.0745 158.426 23.2234C158.746 23.3724 159.008 23.5655 159.212 23.8028L158.468 24.5476C158.297 24.36 158.12 24.2221 157.938 24.1338C157.761 24.0455 157.56 24.0014 157.334 24.0014C157.075 24.0014 156.87 24.051 156.721 24.1503C156.572 24.2496 156.498 24.3931 156.498 24.5807C156.498 24.7407 156.548 24.8703 156.647 24.9696C156.746 25.069 156.876 25.1545 157.036 25.2262C157.201 25.2979 157.381 25.3669 157.574 25.4331C157.772 25.4993 157.968 25.5738 158.161 25.6565C158.36 25.7393 158.539 25.8469 158.699 25.9793C158.865 26.1117 158.997 26.2828 159.097 26.4924C159.196 26.6965 159.246 26.9503 159.246 27.2538C159.246 27.7945 159.055 28.2193 158.675 28.5283C158.294 28.8372 157.772 28.9917 157.11 28.9917Z" fill="#004098"/>
<path d="M149.11 28.9917C148.641 28.9917 148.239 28.9117 147.902 28.7517C147.571 28.5917 147.27 28.3517 147 28.0317L147.745 27.2869C147.916 27.5131 148.115 27.6896 148.341 27.8165C148.567 27.9379 148.843 27.9986 149.168 27.9986C149.461 27.9986 149.692 27.9407 149.863 27.8248C150.04 27.709 150.128 27.549 150.128 27.3448C150.128 27.1683 150.079 27.0248 149.979 26.9145C149.88 26.8041 149.748 26.7103 149.582 26.6331C149.422 26.5559 149.243 26.4869 149.044 26.4262C148.851 26.36 148.655 26.2855 148.457 26.2028C148.263 26.12 148.084 26.0179 147.919 25.8965C147.759 25.7696 147.629 25.6096 147.53 25.4165C147.43 25.2179 147.381 24.9696 147.381 24.6717C147.381 24.3186 147.466 24.0179 147.637 23.7696C147.808 23.5214 148.043 23.331 148.341 23.1986C148.639 23.0662 148.975 23 149.35 23C149.748 23 150.106 23.0745 150.426 23.2234C150.746 23.3724 151.008 23.5655 151.212 23.8028L150.468 24.5476C150.297 24.36 150.12 24.2221 149.938 24.1338C149.761 24.0455 149.56 24.0014 149.334 24.0014C149.075 24.0014 148.87 24.051 148.721 24.1503C148.572 24.2496 148.498 24.3931 148.498 24.5807C148.498 24.7407 148.548 24.8703 148.647 24.9696C148.746 25.069 148.876 25.1545 149.036 25.2262C149.201 25.2979 149.381 25.3669 149.574 25.4331C149.772 25.4993 149.968 25.5738 150.161 25.6565C150.36 25.7393 150.539 25.8469 150.699 25.9793C150.865 26.1117 150.997 26.2828 151.097 26.4924C151.196 26.6965 151.246 26.9503 151.246 27.2538C151.246 27.7945 151.055 28.2193 150.675 28.5283C150.294 28.8372 149.772 28.9917 149.11 28.9917Z" fill="#004098"/>
<path d="M139 28.9089V23.091H140.126V28.9089H139ZM139.828 28.9089V27.9158H143.047V28.9089H139.828ZM139.828 26.4179V25.4579H142.757V26.4179H139.828ZM139.828 24.0841V23.091H143.006V24.0841H139.828Z" fill="#004098"/>
<path d="M131 28.9089V23.091H131.786L132.126 24.2165V28.9089H131ZM135.022 28.9089L131.571 24.44L131.786 23.091L135.237 27.56L135.022 28.9089ZM135.022 28.9089L134.699 27.8165V23.091H135.833V28.9089H135.022Z" fill="#004098"/>
<path d="M126 28.9089V23.091H127.126V28.9089H126Z" fill="#004098"/>
<path d="M120.11 28.9917C119.641 28.9917 119.239 28.9117 118.902 28.7517C118.571 28.5917 118.27 28.3517 118 28.0317L118.745 27.2869C118.916 27.5131 119.115 27.6896 119.341 27.8165C119.567 27.9379 119.843 27.9986 120.168 27.9986C120.461 27.9986 120.692 27.9407 120.863 27.8248C121.04 27.709 121.128 27.549 121.128 27.3448C121.128 27.1683 121.079 27.0248 120.979 26.9145C120.88 26.8041 120.748 26.7103 120.582 26.6331C120.422 26.5559 120.243 26.4869 120.044 26.4262C119.851 26.36 119.655 26.2855 119.457 26.2028C119.263 26.12 119.084 26.0179 118.919 25.8965C118.759 25.7696 118.629 25.6096 118.53 25.4165C118.43 25.2179 118.381 24.9696 118.381 24.6717C118.381 24.3186 118.466 24.0179 118.637 23.7696C118.808 23.5214 119.043 23.331 119.341 23.1986C119.639 23.0662 119.975 23 120.35 23C120.748 23 121.106 23.0745 121.426 23.2234C121.746 23.3724 122.008 23.5655 122.212 23.8028L121.468 24.5476C121.297 24.36 121.12 24.2221 120.938 24.1338C120.761 24.0455 120.56 24.0014 120.334 24.0014C120.075 24.0014 119.87 24.051 119.721 24.1503C119.572 24.2496 119.498 24.3931 119.498 24.5807C119.498 24.7407 119.548 24.8703 119.647 24.9696C119.746 25.069 119.876 25.1545 120.036 25.2262C120.201 25.2979 120.381 25.3669 120.574 25.4331C120.772 25.4993 120.968 25.5738 121.161 25.6565C121.36 25.7393 121.539 25.8469 121.699 25.9793C121.865 26.1117 121.997 26.2828 122.097 26.4924C122.196 26.6965 122.246 26.9503 122.246 27.2538C122.246 27.7945 122.055 28.2193 121.675 28.5283C121.294 28.8372 120.772 28.9917 120.11 28.9917Z" fill="#004098"/>
<path d="M112.367 28.9917C111.909 28.9917 111.501 28.8924 111.142 28.6938C110.789 28.4896 110.51 28.211 110.306 27.8579C110.102 27.5048 110 27.1048 110 26.6579V23.091H111.126V26.691C111.126 26.9503 111.178 27.1738 111.283 27.3613C111.393 27.5489 111.542 27.6951 111.73 27.8C111.923 27.8993 112.135 27.9489 112.367 27.9489C112.604 27.9489 112.814 27.8993 112.996 27.8C113.178 27.6951 113.321 27.5489 113.426 27.3613C113.537 27.1738 113.592 26.9531 113.592 26.6993V23.091H114.726V26.6662C114.726 27.1131 114.623 27.5131 114.419 27.8662C114.215 28.2138 113.937 28.4896 113.583 28.6938C113.236 28.8924 112.83 28.9917 112.367 28.9917Z" fill="#004098"/>
<path d="M102.828 28.9089V27.9903H104.342C104.612 27.9903 104.822 27.9075 104.971 27.742C105.126 27.5765 105.203 27.3807 105.203 27.1544C105.203 27 105.17 26.8593 105.103 26.7324C105.037 26.6055 104.938 26.5062 104.806 26.4344C104.679 26.3572 104.524 26.3186 104.342 26.3186H102.828V25.4082H104.218C104.45 25.4082 104.635 25.3503 104.772 25.2344C104.916 25.1186 104.988 24.9448 104.988 24.7131C104.988 24.4758 104.916 24.2993 104.772 24.1834C104.635 24.0675 104.45 24.0096 104.218 24.0096H102.828V23.091H104.35C104.737 23.091 105.059 23.1627 105.319 23.3062C105.583 23.4441 105.782 23.6289 105.915 23.8607C106.047 24.0869 106.113 24.3351 106.113 24.6055C106.113 24.9365 106.011 25.2234 105.807 25.4662C105.608 25.7034 105.316 25.88 104.93 25.9958L104.979 25.6317C105.41 25.7531 105.741 25.9544 105.972 26.2358C106.21 26.5117 106.328 26.8455 106.328 27.2372C106.328 27.5462 106.251 27.8275 106.097 28.0813C105.948 28.3296 105.727 28.531 105.435 28.6855C105.148 28.8344 104.797 28.9089 104.383 28.9089H102.828ZM102 28.9089V23.091H103.117V28.9089H102Z" fill="#004098"/>
<path d="M93.7608 27.3172V26.7324H94.6601C94.8441 26.7324 94.9857 26.6864 95.085 26.5945C95.188 26.4988 95.2395 26.3682 95.2395 26.2027C95.2395 26.0519 95.188 25.9269 95.085 25.8276C94.9857 25.7246 94.8441 25.6731 94.6601 25.6731H93.7608V25.0607H94.7264C94.9765 25.0607 95.1953 25.1103 95.3829 25.2096C95.5742 25.3053 95.7213 25.4377 95.8243 25.6069C95.931 25.7761 95.9843 25.971 95.9843 26.1917C95.9843 26.4197 95.931 26.6184 95.8243 26.7876C95.7213 26.9531 95.5742 27.0836 95.3829 27.1793C95.1916 27.2712 94.9691 27.3172 94.7153 27.3172H93.7608ZM93.2091 28.9393V25.0607H93.9595V28.9393H93.2091ZM95.3277 28.9393L94.0477 27.262L94.7374 27.0469L96.2381 28.9393H95.3277Z" fill="#004098"/>
<path d="M89.7839 29C89.5007 29 89.2359 28.9485 88.9895 28.8455C88.7467 28.7425 88.5334 28.6009 88.3495 28.4207C88.1692 28.2368 88.0276 28.0234 87.9246 27.7807C87.8216 27.5342 87.7701 27.2713 87.7701 26.9917C87.7701 26.7122 87.8198 26.4529 87.9191 26.2138C88.0221 25.971 88.1637 25.7595 88.3439 25.5793C88.5279 25.3954 88.7412 25.2538 88.9839 25.1545C89.2267 25.0515 89.4897 25 89.7729 25C90.0598 25 90.3246 25.0515 90.5674 25.1545C90.8101 25.2538 91.0216 25.3954 91.2019 25.5793C91.3858 25.7595 91.5292 25.971 91.6322 26.2138C91.7352 26.4565 91.7867 26.7177 91.7867 26.9972C91.7867 27.2768 91.7352 27.5379 91.6322 27.7807C91.5292 28.0234 91.3858 28.2368 91.2019 28.4207C91.0216 28.6009 90.8101 28.7425 90.5674 28.8455C90.3283 28.9485 90.0672 29 89.7839 29ZM89.7729 28.2993C90.023 28.2993 90.24 28.2441 90.4239 28.1338C90.6079 28.0234 90.7513 27.8708 90.8543 27.6759C90.961 27.4809 91.0143 27.2529 91.0143 26.9917C91.0143 26.8005 90.9849 26.6257 90.926 26.4676C90.8672 26.3094 90.7826 26.1733 90.6722 26.0593C90.5619 25.9416 90.4313 25.8515 90.2805 25.789C90.1297 25.7264 89.9605 25.6952 89.7729 25.6952C89.5301 25.6952 89.315 25.7503 89.1274 25.8607C88.9435 25.9673 88.7982 26.1182 88.6915 26.3131C88.5885 26.508 88.537 26.7342 88.537 26.9917C88.537 27.1867 88.5665 27.365 88.6253 27.5269C88.6879 27.6887 88.7724 27.8267 88.8791 27.9407C88.9895 28.0547 89.12 28.143 89.2708 28.2055C89.4253 28.268 89.5927 28.2993 89.7729 28.2993Z" fill="#004098"/>
<path d="M84 28.9393V25.0607H84.7504V28.9393H84ZM84.5518 27.3503V26.6827H86.5049V27.3503H84.5518ZM84.5518 25.7227V25.0607H86.5987V25.7227H84.5518Z" fill="#004098"/>
</svg>
