<svg width="407" height="73" viewBox="0 0 407 73" fill="none" xmlns="http://www.w3.org/2000/svg">
<path d="M34.565 29.9778C37.5984 29.9778 40.0455 32.4159 40.0455 35.4381C40.0455 38.4603 37.5984 40.8984 34.565 40.8984C31.5317 40.8984 29.0846 38.4603 29.0846 35.4381C29.0846 32.4159 31.5317 29.9778 34.565 29.9778ZM69.7164 63.8571L48.3809 42.6C46.5455 40.7714 43.5887 40.7714 41.7533 42.6C39.918 44.4286 39.918 47.3746 41.7533 49.2032L48.7377 56.1619C44.5828 58.9809 39.6886 60.5302 34.565 60.5302C20.6727 60.5302 9.38048 49.2794 9.38048 35.4381C9.38048 21.5968 20.6727 10.346 34.565 10.346C48.4573 10.346 59.7496 21.5968 59.7496 35.4381C59.7496 37.4698 59.5202 39.4762 59.0359 41.4063C58.4241 43.9206 59.9535 46.4349 62.4771 47.0444C65.0006 47.654 67.5242 46.1302 68.1359 43.6159C68.7987 40.9492 69.1301 38.2063 69.1301 35.4381C69.1301 16.4413 53.6319 1 34.565 1C15.4982 1 0 16.4413 0 35.4381C0 54.4349 15.4982 69.8762 34.565 69.8762C39.7906 69.8762 44.8122 68.6825 49.4005 66.4984L64.9241 71.5778C65.4085 71.7302 65.8928 71.8063 66.3771 71.8063C67.983 71.8063 69.5124 70.9936 70.3791 69.5714C71.5262 67.7175 71.2458 65.3556 69.6909 63.8063L69.7164 63.8571Z" fill="#004098"/>
<path d="M95.0794 2.39649C93.2441 2.39649 91.7657 3.86951 91.7657 5.69808V37.6727C91.7657 39.552 93.2441 41.0251 95.0794 41.0251C96.9148 41.0251 98.3932 39.552 98.3932 37.7235V5.67268C98.3932 3.84411 96.9148 2.37109 95.0794 2.37109V2.39649Z" fill="#004098"/>
<path d="M120.34 41.0504C122.176 41.0504 123.654 39.5774 123.654 37.7488V9.07583H133.799C135.635 9.07583 137.113 7.60282 137.113 5.77424C137.113 3.94567 135.635 2.47266 133.799 2.47266H106.882C105.046 2.47266 103.568 3.94567 103.568 5.77424C103.568 7.60282 105.046 9.07583 106.882 9.07583H117.027V37.7488C117.027 39.5774 118.505 41.0504 120.34 41.0504Z" fill="#004098"/>
<path d="M185.086 33.9649C185.112 33.076 184.806 32.2379 184.194 31.603C183.557 30.9427 182.716 30.5617 181.772 30.5617C180.931 30.5617 180.116 30.8665 179.504 31.4506C178.28 32.5934 176.904 33.4823 175.374 34.0919C172.137 35.3871 168.39 35.3617 165.178 34.0157C162.782 32.9998 160.768 31.349 159.29 29.1903C158.551 28.1236 157.99 26.9554 157.607 25.7109C157.2 24.4411 156.996 23.095 156.996 21.749C156.996 19.9458 157.353 18.2188 158.041 16.5681C159.06 14.1807 160.717 12.1744 162.884 10.7014C163.955 9.96488 165.127 9.40614 166.376 9.02519C169.308 8.11091 172.57 8.26329 175.425 9.43154C176.98 10.0665 178.382 10.9807 179.606 12.149C180.88 13.368 183.047 13.3173 184.27 12.0474C185.545 10.7268 185.494 8.64424 184.169 7.3998C182.359 5.64741 180.243 4.27599 177.923 3.3363C175.502 2.34583 172.953 1.83789 170.327 1.83789C167.702 1.83789 165.025 2.37122 162.553 3.41249C158.984 4.91091 155.951 7.3998 153.758 10.6252C152.662 12.2252 151.821 13.9776 151.235 15.8315C150.649 17.7363 150.343 19.7427 150.343 21.749C150.343 24.4411 150.878 27.0315 151.923 29.495C153.427 33.0506 155.925 36.0728 159.162 38.2569C160.768 39.349 162.527 40.1871 164.388 40.7712C168.747 42.1173 173.565 41.9395 177.796 40.2379C180.09 39.3236 182.18 37.9776 183.99 36.3014C184.627 35.6919 185.01 34.8792 185.035 34.0157L185.086 33.9649Z" fill="#004098"/>
<path d="M220.824 27.0065C220.824 24.9748 220.416 22.9938 219.6 21.1399C218.428 18.4732 216.516 16.1875 214.043 14.5621C212.82 13.7494 211.469 13.1145 210.041 12.6827C206.626 11.6415 202.878 11.8192 199.59 13.1907C196.863 14.3081 194.543 16.1875 192.861 18.6002C192.02 19.8192 191.357 21.1399 190.923 22.5367C190.465 23.9843 190.235 25.4827 190.235 27.0065V27.1589C190.261 31.0954 191.867 34.8034 194.696 37.597C197.576 40.4415 201.426 41.9907 205.504 41.9907C213.941 41.9907 220.798 35.2859 220.798 27.0065H220.824ZM196.837 27.0065C196.837 25.8891 197.067 24.797 197.5 23.7557C198.137 22.2573 199.233 20.9875 200.635 20.0478C201.349 19.5907 202.114 19.2351 202.904 18.9811C204.841 18.397 207.008 18.4986 208.894 19.2605C210.449 19.8954 211.775 20.9621 212.718 22.3335C213.177 23.0192 213.559 23.7557 213.788 24.5176C214.043 25.3049 214.171 26.143 214.171 26.9811V28.124H214.094C213.508 32.2129 209.888 35.3621 205.504 35.3621C200.712 35.3621 196.837 31.6034 196.837 26.9811V27.0065Z" fill="#004098"/>
<path d="M246.977 13.6987C242.873 11.286 237.928 11.2098 233.773 13.5209L233.442 13.6987L233.238 13.3939C232.626 12.3781 231.581 11.7939 230.408 11.7939C228.573 11.7939 227.094 13.267 227.094 15.0955V37.7495C227.094 39.5781 228.573 41.0511 230.408 41.0511C232.243 41.0511 233.722 39.5781 233.722 37.7495V24.6447C233.722 21.0384 236.475 19.0066 239.202 18.5749C241.955 18.1432 245.244 19.3114 246.391 22.8162C246.569 23.4003 246.671 24.0098 246.671 24.6447V38.0543C246.85 39.7812 248.251 41.0765 249.985 41.0765C251.718 41.0765 253.12 39.7812 253.273 38.0543V37.7749V37.6479V24.6447C253.273 20.0987 250.903 16.0352 246.977 13.7241V13.6987Z" fill="#004098"/>
<path d="M275.016 11.4385C272.824 11.4385 270.632 11.8956 268.516 12.8353C262.959 15.2988 259.518 20.5306 259.518 26.4734C259.518 28.5052 259.926 30.4861 260.742 32.3655C261.914 35.0575 263.852 37.3432 266.35 38.9686C267.599 39.7813 268.95 40.4163 270.377 40.848C271.856 41.2798 273.385 41.5083 274.94 41.5083C276.852 41.5083 278.713 41.1782 280.471 40.4925C282.077 39.8829 283.556 39.0194 284.881 37.9274L285.111 37.6988C285.85 37.0639 286.258 36.175 286.258 35.2099C286.258 33.3813 284.779 31.9083 282.944 31.9083C282.154 31.9083 281.415 32.1877 280.777 32.721L280.497 32.975C279.783 33.5337 278.993 33.9909 278.126 34.2956C276.011 35.0829 273.563 35.0575 271.473 34.194C269.893 33.5591 268.567 32.4925 267.599 31.121C267.114 30.4353 266.758 29.6988 266.503 28.9369C266.248 28.1242 266.12 27.3115 266.12 26.448C266.12 23.121 268.083 20.2004 271.218 18.8036C274.43 17.3813 277.999 17.8639 280.624 20.0226L280.905 20.2512C281.516 20.8099 282.307 21.1147 283.097 21.1147C284.932 21.1147 286.411 19.6417 286.411 17.8131C286.411 16.8734 286.028 16.0099 285.315 15.375L285.034 15.121C282.154 12.6575 278.611 11.3877 274.991 11.3877L275.016 11.4385Z" fill="#004098"/>
<path d="M305.885 11.8447C302.062 11.8447 298.468 13.3939 295.74 16.2384C292.987 19.0828 291.483 22.8416 291.483 26.8289C291.483 28.8352 291.815 30.74 292.452 32.5177C292.962 33.8892 293.65 35.1336 294.517 36.2511C295.179 37.1146 295.944 37.9019 296.785 38.5876C298.085 39.6289 299.589 40.4415 301.221 40.9749C304.483 42.0415 308.409 42.1685 312.105 40.7463C313.787 40.086 315.317 39.1717 316.642 38.0542L316.846 37.8511C317.56 37.2162 317.942 36.3527 317.942 35.413C317.942 33.5844 316.464 32.1114 314.629 32.1114C313.838 32.1114 313.048 32.4162 312.436 32.9749L312.156 33.2035C311.442 33.7622 310.576 34.2701 309.683 34.6003C308.689 34.9812 307.593 35.2098 306.625 35.2098C305.197 35.2098 303.897 34.9812 302.776 34.5241C302.011 34.2193 301.348 33.813 300.762 33.3304C299.921 32.6193 299.258 31.705 298.799 30.613C298.315 29.4955 298.085 28.2257 298.085 26.8289C298.085 22.2828 301.654 18.4479 305.885 18.4479C309.199 18.4479 311.825 20.0987 313.099 22.9939L313.329 23.5273H304.407C302.572 23.5273 301.093 25.0003 301.093 26.8289C301.093 28.6574 302.572 30.1304 304.407 30.1304H317.152C318.987 30.1304 320.466 28.6574 320.466 26.8289C320.466 18.2955 314.195 11.8701 305.885 11.8701V11.8447Z" fill="#004098"/>
<path d="M341.292 13.0889C338.539 13.0889 335.862 13.8508 333.542 15.3238L333.186 15.5524L333.007 15.1714C332.446 14.0032 331.299 13.292 330.025 13.292C328.19 13.292 326.711 14.7651 326.711 16.5936V16.9746V49.9397C326.711 51.7682 328.19 53.2412 330.025 53.2412C331.86 53.2412 333.339 51.7682 333.339 49.9397V39.7301L333.925 40.0603C336.143 41.3809 338.717 42.0666 341.317 42.0666C349.321 42.0666 355.847 35.5651 355.847 27.5905C355.847 19.6159 349.321 13.1143 341.317 13.1143L341.292 13.0889ZM341.292 35.4889C336.907 35.4889 333.339 31.9333 333.339 27.5651C333.339 23.1968 336.907 19.6412 341.292 19.6412C345.676 19.6412 349.245 23.1968 349.245 27.5651C349.245 31.9333 345.676 35.4889 341.292 35.4889Z" fill="#004098"/>
<path d="M366.731 38.7398C368.949 40.6445 372.135 41.4064 375.933 40.8985L376.239 40.8477C377.845 40.6191 379.068 39.2223 379.068 37.5969C379.068 35.7683 377.59 34.2953 375.755 34.2953C375.602 34.2953 375.449 34.2953 375.321 34.3461L374.939 34.3969C373.104 34.6001 371.855 34.3969 371.064 33.7112C370.402 33.1271 370.07 32.2382 370.07 31.0191V17.9144H375.551C377.386 17.9144 378.865 16.4413 378.865 14.6128C378.865 12.7842 377.386 11.3112 375.551 11.3112H370.07V3.9969C370.07 2.16833 368.592 0.695312 366.757 0.695312C364.921 0.695312 363.443 2.16833 363.443 3.9969V11.3112H360.817C358.982 11.3112 357.504 12.7842 357.504 14.6128C357.504 16.4413 358.982 17.9144 360.817 17.9144H363.443V30.8413C363.443 34.1429 364.615 36.962 366.706 38.7652L366.731 38.7398Z" fill="#004098"/>
<path d="M395.331 23.1969C394.618 23.0192 394.057 22.8922 393.649 22.7652C393.063 22.562 391.661 22.0033 391.38 21.2922C391.355 21.1906 391.329 21.089 391.304 20.9112C391.304 19.4636 391.89 18.4985 394.796 18.4985C396.937 18.4985 398.39 19.2096 399.537 19.7684C399.869 19.9208 400.175 20.0731 400.506 20.2001C400.939 20.4033 401.398 20.5049 401.857 20.5303C401.857 20.5303 401.933 20.5303 401.984 20.5303C403.743 20.5303 405.222 19.0573 405.222 17.2287C405.222 16.0096 404.533 14.8922 403.437 14.3081C403.412 14.3081 403.386 14.2573 403.335 14.2319C402.163 13.6223 401.067 13.1652 400.022 12.7842C395.688 11.2858 391.125 11.6414 388.143 13.7493C385.874 15.3493 384.676 17.7874 384.676 20.8096C384.676 25.3049 387.888 28.2763 394.184 29.6985C396.504 30.1811 399.333 31.0192 399.792 32.1874C399.818 32.289 399.869 32.416 399.869 32.6446C399.869 34.1684 398.441 35.0573 395.943 35.0573C393.012 35.0573 390.896 33.9906 389.086 32.7969C389.035 32.7969 388.984 32.7969 388.959 32.7461C388.423 32.3906 387.786 32.2128 387.174 32.2128C385.339 32.2128 383.861 33.6858 383.861 35.5144C383.861 36.7588 384.574 37.8763 385.696 38.435C389.214 40.67 392.374 41.635 395.969 41.635C402.188 41.635 406.522 37.9271 406.522 32.6446C406.522 25.8128 399.257 24.0858 395.357 23.1715L395.331 23.1969Z" fill="#004098"/>
<path d="M105.887 65.8382C105.887 69.9779 103.236 73.0001 98.8265 73.0001C94.7226 73.0001 91.7657 70.562 91.7657 66.016H94.7481C94.7481 68.7588 96.0736 70.1556 98.801 70.1556C101.529 70.1556 102.854 68.2509 102.854 65.8382V59.489H98.0108V56.6699H105.887V65.8382Z" fill="#004098"/>
<path d="M125.923 69.6477H117.511L116.135 72.6699H112.846L120.06 56.6699H123.374L130.588 72.6699H127.274L125.923 69.6477ZM121.717 60.0223L118.735 66.8287H124.699L121.717 60.0223Z" fill="#004098"/>
<path d="M146.06 67.9461H141.523V72.6699H138.49V56.6699C141.013 56.6699 143.537 56.6699 146.06 56.6699C153.911 56.6699 153.937 67.9969 146.06 67.9969V67.9461ZM141.523 65.1779H146.06C149.935 65.1779 149.909 59.5144 146.06 59.5144H141.523V65.1779Z" fill="#004098"/>
<path d="M170.658 69.6477H162.247L160.87 72.6699H157.582L164.796 56.6699H168.109L175.323 72.6699H172.009L170.658 69.6477ZM166.453 60.0223L163.47 66.8287H169.435L166.453 60.0223Z" fill="#004098"/>
<path d="M193.677 56.6445H196.71V72.6699H194.824L186.386 61.8763V72.6699H183.353V56.6699H185.8L193.677 66.6001V56.6445Z" fill="#004098"/>
<path d="M400.481 72.0901C399.286 72.0901 398.259 71.887 397.401 71.4806C396.558 71.0743 395.791 70.4647 395.102 69.652L397.001 67.7604C397.437 68.3349 397.943 68.7833 398.519 69.1056C399.096 69.4138 399.799 69.568 400.629 69.568C401.374 69.568 401.965 69.4208 402.401 69.1266C402.851 68.8323 403.076 68.426 403.076 67.9075C403.076 67.4591 402.95 67.0948 402.696 66.8146C402.443 66.5344 402.106 66.2961 401.684 66.1C401.276 65.9038 400.819 65.7287 400.313 65.5745C399.82 65.4064 399.321 65.2172 398.815 65.007C398.323 64.7969 397.865 64.5376 397.444 64.2294C397.036 63.9071 396.705 63.5007 396.452 63.0103C396.199 62.5059 396.072 61.8753 396.072 61.1187C396.072 60.2219 396.29 59.4583 396.726 58.8277C397.162 58.1972 397.76 57.7138 398.519 57.3775C399.279 57.0412 400.137 56.873 401.093 56.873C402.106 56.873 403.02 57.0622 403.836 57.4405C404.651 57.8189 405.319 58.3093 405.84 58.9118L403.941 60.8034C403.505 60.327 403.055 59.9767 402.591 59.7525C402.141 59.5283 401.628 59.4162 401.051 59.4162C400.39 59.4162 399.87 59.5423 399.49 59.7946C399.11 60.0468 398.92 60.4111 398.92 60.8875C398.92 61.2938 399.047 61.6231 399.3 61.8753C399.553 62.1276 399.884 62.3447 400.291 62.5269C400.713 62.7091 401.17 62.8842 401.663 63.0524C402.169 63.2205 402.668 63.4097 403.16 63.6198C403.667 63.83 404.124 64.1033 404.532 64.4396C404.954 64.7758 405.291 65.2102 405.544 65.7427C405.797 66.2611 405.924 66.9057 405.924 67.6763C405.924 69.0495 405.439 70.1284 404.468 70.9131C403.498 71.6978 402.169 72.0901 400.481 72.0901Z" fill="#004098"/>
<path d="M380.089 72.0901C378.894 72.0901 377.867 71.887 377.009 71.4806C376.165 71.0743 375.399 70.4647 374.71 69.652L376.608 67.7604C377.044 68.3349 377.55 68.7833 378.127 69.1056C378.704 69.4138 379.407 69.568 380.237 69.568C380.982 69.568 381.573 69.4208 382.009 69.1266C382.459 68.8323 382.684 68.426 382.684 67.9075C382.684 67.4591 382.557 67.0948 382.304 66.8146C382.051 66.5344 381.713 66.2961 381.291 66.1C380.884 65.9038 380.426 65.7287 379.92 65.5745C379.428 65.4064 378.929 65.2172 378.422 65.007C377.93 64.7969 377.473 64.5376 377.051 64.2294C376.643 63.9071 376.313 63.5007 376.06 63.0103C375.807 62.5059 375.68 61.8753 375.68 61.1187C375.68 60.2219 375.898 59.4583 376.334 58.8277C376.77 58.1972 377.368 57.7138 378.127 57.3775C378.887 57.0412 379.744 56.873 380.701 56.873C381.713 56.873 382.627 57.0622 383.443 57.4405C384.259 57.8189 384.927 58.3093 385.447 58.9118L383.549 60.8034C383.113 60.327 382.663 59.9767 382.199 59.7525C381.748 59.5283 381.235 59.4162 380.659 59.4162C379.998 59.4162 379.477 59.5423 379.097 59.7946C378.718 60.0468 378.528 60.4111 378.528 60.8875C378.528 61.2938 378.654 61.6231 378.908 61.8753C379.161 62.1276 379.491 62.3447 379.899 62.5269C380.321 62.7091 380.778 62.8842 381.27 63.0524C381.777 63.2205 382.276 63.4097 382.768 63.6198C383.274 63.83 383.731 64.1033 384.139 64.4396C384.561 64.7758 384.899 65.2102 385.152 65.7427C385.405 66.2611 385.532 66.9057 385.532 67.6763C385.532 69.0495 385.046 70.1284 384.076 70.9131C383.106 71.6978 381.777 72.0901 380.089 72.0901Z" fill="#004098"/>
<path d="M354.317 71.8802V57.1045H357.186V71.8802H354.317ZM356.427 71.8802V69.358H364.633V71.8802H356.427ZM356.427 65.5538V63.1157H363.895V65.5538H356.427ZM356.427 59.6267V57.1045H364.527V59.6267H356.427Z" fill="#004098"/>
<path d="M333.925 71.8802V57.1045H335.929L336.794 59.9629V71.8802H333.925ZM344.177 71.8802L335.381 60.5304L335.929 57.1045L344.726 68.4542L344.177 71.8802ZM344.177 71.8802L343.355 69.1058V57.1045H346.245V71.8802H344.177Z" fill="#004098"/>
<path d="M321.18 71.8802V57.1045H324.049V71.8802H321.18Z" fill="#004098"/>
<path d="M306.167 72.0901C304.971 72.0901 303.945 71.887 303.087 71.4806C302.243 71.0743 301.476 70.4647 300.787 69.652L302.686 67.7604C303.122 68.3349 303.628 68.7833 304.205 69.1056C304.781 69.4138 305.485 69.568 306.314 69.568C307.06 69.568 307.65 69.4208 308.086 69.1266C308.536 68.8323 308.761 68.426 308.761 67.9075C308.761 67.4591 308.635 67.0948 308.382 66.8146C308.129 66.5344 307.791 66.2961 307.369 66.1C306.961 65.9038 306.504 65.7287 305.998 65.5745C305.506 65.4064 305.006 65.2172 304.5 65.007C304.008 64.7969 303.551 64.5376 303.129 64.2294C302.721 63.9071 302.391 63.5007 302.137 63.0103C301.884 62.5059 301.758 61.8753 301.758 61.1187C301.758 60.2219 301.976 59.4583 302.412 58.8277C302.848 58.1972 303.445 57.7138 304.205 57.3775C304.964 57.0412 305.822 56.873 306.778 56.873C307.791 56.873 308.705 57.0622 309.521 57.4405C310.337 57.8189 311.005 58.3093 311.525 58.9118L309.626 60.8034C309.19 60.327 308.74 59.9767 308.276 59.7525C307.826 59.5283 307.313 59.4162 306.736 59.4162C306.075 59.4162 305.555 59.5423 305.175 59.7946C304.796 60.0468 304.606 60.4111 304.606 60.8875C304.606 61.2938 304.732 61.6231 304.985 61.8753C305.239 62.1276 305.569 62.3447 305.977 62.5269C306.399 62.7091 306.856 62.8842 307.348 63.0524C307.854 63.2205 308.354 63.4097 308.846 63.6198C309.352 63.83 309.809 64.1033 310.217 64.4396C310.639 64.7758 310.976 65.2102 311.23 65.7427C311.483 66.2611 311.609 66.9057 311.609 67.6763C311.609 69.0495 311.124 70.1284 310.154 70.9131C309.183 71.6978 307.854 72.0901 306.167 72.0901Z" fill="#004098"/>
<path d="M286.428 72.0904C285.261 72.0904 284.22 71.8382 283.306 71.3337C282.406 70.8153 281.696 70.1077 281.175 69.2109C280.655 68.3141 280.395 67.2983 280.395 66.1633V57.1045H283.264V66.2473C283.264 66.9059 283.398 67.4734 283.665 67.9498C283.946 68.4262 284.326 68.7975 284.804 69.0638C285.296 69.316 285.838 69.4421 286.428 69.4421C287.033 69.4421 287.567 69.316 288.032 69.0638C288.496 68.7975 288.861 68.4262 289.129 67.9498C289.41 67.4734 289.55 66.9129 289.55 66.2684V57.1045H292.441V66.1843C292.441 67.3193 292.18 68.3351 291.66 69.2319C291.14 70.1147 290.429 70.8153 289.529 71.3337C288.643 71.8382 287.61 72.0904 286.428 72.0904Z" fill="#004098"/>
<path d="M262.112 71.8802V69.5472H265.973C266.662 69.5472 267.196 69.337 267.576 68.9166C267.97 68.4963 268.167 67.9989 268.167 67.4244C268.167 67.032 268.082 66.6747 267.913 66.3524C267.745 66.0302 267.492 65.7779 267.154 65.5958C266.831 65.3996 266.437 65.3015 265.973 65.3015H262.112V62.9896H265.656C266.247 62.9896 266.718 62.8424 267.07 62.5482C267.435 62.2539 267.618 61.8125 267.618 61.224C267.618 60.6215 267.435 60.1731 267.07 59.8789C266.718 59.5846 266.247 59.4375 265.656 59.4375H262.112V57.1045H265.994C266.978 57.1045 267.801 57.2866 268.462 57.651C269.137 58.0013 269.643 58.4707 269.981 59.0592C270.318 59.6337 270.487 60.2642 270.487 60.9508C270.487 61.7915 270.227 62.5201 269.707 63.1367C269.2 63.7392 268.455 64.1876 267.47 64.4818L267.597 63.557C268.694 63.8653 269.538 64.3767 270.128 65.0914C270.733 65.792 271.036 66.6397 271.036 67.6345C271.036 68.4192 270.839 69.1338 270.445 69.7784C270.065 70.4089 269.503 70.9204 268.757 71.3127C268.026 71.691 267.133 71.8802 266.078 71.8802H262.112ZM260.003 71.8802V57.1045H262.851V71.8802H260.003Z" fill="#004098"/>
<path d="M239 67.8374V66.3521H241.293C241.762 66.3521 242.123 66.2353 242.376 66.0018C242.638 65.7589 242.77 65.4273 242.77 65.0069C242.77 64.6239 242.638 64.3063 242.376 64.0541C242.123 63.7926 241.762 63.6618 241.293 63.6618H239V62.1064H241.462C242.099 62.1064 242.657 62.2326 243.135 62.4848C243.623 62.7276 243.998 63.0639 244.26 63.4936C244.532 63.9233 244.668 64.4184 244.668 64.9789C244.668 65.5581 244.532 66.0625 244.26 66.4922C243.998 66.9126 243.623 67.2442 243.135 67.4871C242.648 67.7206 242.08 67.8374 241.434 67.8374H239ZM237.594 71.9569V62.1064H239.507V71.9569H237.594ZM242.995 71.9569L239.732 67.6972L241.49 67.1508L245.315 71.9569H242.995Z" fill="#004098"/>
<path d="M228.863 72.1109C228.141 72.1109 227.466 71.9801 226.838 71.7185C226.219 71.457 225.675 71.0973 225.207 70.6396C224.747 70.1725 224.386 69.6307 224.124 69.0142C223.861 68.3883 223.73 67.7204 223.73 67.0105C223.73 66.3006 223.857 65.642 224.11 65.0348C224.372 64.4183 224.733 63.8811 225.193 63.4234C225.661 62.9563 226.205 62.5967 226.824 62.3445C227.443 62.0829 228.113 61.9521 228.835 61.9521C229.566 61.9521 230.241 62.0829 230.86 62.3445C231.479 62.5967 232.018 62.9563 232.478 63.4234C232.946 63.8811 233.312 64.4183 233.575 65.0348C233.837 65.6513 233.968 66.3146 233.968 67.0245C233.968 67.7345 233.837 68.3977 233.575 69.0142C233.312 69.6307 232.946 70.1725 232.478 70.6396C232.018 71.0973 231.479 71.457 230.86 71.7185C230.251 71.9801 229.585 72.1109 228.863 72.1109ZM228.835 70.3313C229.473 70.3313 230.026 70.1912 230.495 69.911C230.963 69.6307 231.329 69.2431 231.592 68.748C231.863 68.2529 231.999 67.6737 231.999 67.0105C231.999 66.5247 231.924 66.081 231.774 65.6794C231.624 65.2777 231.409 64.932 231.127 64.6425C230.846 64.3435 230.513 64.1147 230.129 63.9559C229.745 63.7971 229.313 63.7177 228.835 63.7177C228.216 63.7177 227.668 63.8578 227.19 64.138C226.721 64.4089 226.351 64.7919 226.079 65.287C225.816 65.7821 225.685 66.3566 225.685 67.0105C225.685 67.5056 225.76 67.9586 225.91 68.3697C226.069 68.7807 226.285 69.131 226.557 69.4206C226.838 69.7101 227.171 69.9343 227.555 70.0931C227.949 70.2519 228.376 70.3313 228.835 70.3313Z" fill="#004098"/>
<path d="M214.12 71.9569V62.1064H216.032V71.9569H214.12ZM215.526 67.9214V66.226H220.505V67.9214H215.526ZM215.526 63.7879V62.1064H220.744V63.7879H215.526Z" fill="#004098"/>
</svg>
