<svg width="335" height="60" viewBox="0 0 335 60" fill="none" xmlns="http://www.w3.org/2000/svg">
<path d="M28.3806 24.7457C30.8712 24.7457 32.8805 26.7436 32.8805 29.2201C32.8805 31.6966 30.8712 33.6945 28.3806 33.6945C25.89 33.6945 23.8807 31.6966 23.8807 29.2201C23.8807 26.7436 25.89 24.7457 28.3806 24.7457ZM57.2426 52.5079L39.7245 35.0889C38.2175 33.5905 35.7897 33.5905 34.2828 35.0889C32.7758 36.5873 32.7758 39.0014 34.2828 40.4998L40.0175 46.2021C36.606 48.5122 32.5875 49.7817 28.3806 49.7817C16.9739 49.7817 7.70211 40.5623 7.70211 29.2201C7.70211 17.878 16.9739 8.65855 28.3806 8.65855C39.7873 8.65855 49.0591 17.878 49.0591 29.2201C49.0591 30.885 48.8707 32.5291 48.4731 34.1108C47.9708 36.1711 49.2265 38.2314 51.2986 38.7309C53.3706 39.2303 55.4426 37.9817 55.945 35.9213C56.4891 33.7362 56.7612 31.4885 56.7612 29.2201C56.7612 13.6533 44.036 1 28.3806 1C12.7252 1 0 13.6533 0 29.2201C0 44.7869 12.7252 57.4402 28.3806 57.4402C32.6712 57.4402 36.7943 56.4621 40.5617 54.6723L53.3078 58.8346C53.7055 58.9594 54.1031 59.0219 54.5008 59.0219C55.8194 59.0219 57.0752 58.3559 57.7868 57.1905C58.7286 55.6712 58.4984 53.7358 57.2217 52.4663L57.2426 52.5079Z" fill="#004098"/>
<path d="M78.0677 2.14462C76.5608 2.14462 75.3468 3.35168 75.3468 4.85009V31.0515C75.3468 32.5915 76.5608 33.7986 78.0677 33.7986C79.5746 33.7986 80.7885 32.5915 80.7885 31.0931V4.82928C80.7885 3.33086 79.5746 2.12381 78.0677 2.12381V2.14462Z" fill="#004098"/>
<path d="M98.809 33.8194C100.316 33.8194 101.53 32.6124 101.53 31.1139V7.618H109.86C111.367 7.618 112.581 6.41094 112.581 4.91253C112.581 3.41412 111.367 2.20706 109.86 2.20706H87.7581C86.2512 2.20706 85.0373 3.41412 85.0373 4.91253C85.0373 6.41094 86.2512 7.618 87.7581 7.618H96.0881V31.1139C96.0881 32.6124 97.302 33.8194 98.809 33.8194Z" fill="#004098"/>
<path d="M151.97 28.013C151.991 27.2847 151.74 26.5979 151.238 26.0776C150.715 25.5365 150.024 25.2243 149.249 25.2243C148.559 25.2243 147.889 25.4741 147.387 25.9527C146.382 26.8892 145.252 27.6176 143.996 28.1171C141.338 29.1785 138.261 29.1577 135.624 28.0547C133.657 27.2222 132.003 25.8695 130.789 24.1005C130.183 23.2265 129.722 22.2691 129.408 21.2494C129.073 20.2088 128.906 19.1058 128.906 18.0028C128.906 16.5252 129.199 15.11 129.764 13.7573C130.601 11.8011 131.962 10.157 133.741 8.94991C134.62 8.34638 135.582 7.88853 136.608 7.57636C139.015 6.82716 141.694 6.95202 144.038 7.90934C145.315 8.42963 146.466 9.17883 147.47 10.1362C148.517 11.1351 150.296 11.0935 151.301 10.0529C152.347 8.97072 152.305 7.26419 151.217 6.24444C149.731 4.80846 147.994 3.68465 146.089 2.91463C144.101 2.10299 142.008 1.68677 139.852 1.68677C137.696 1.68677 135.499 2.1238 133.468 2.97707C130.538 4.20493 128.048 6.24444 126.248 8.88747C125.348 10.1986 124.657 11.6346 124.176 13.1538C123.694 14.7146 123.443 16.3587 123.443 18.0028C123.443 20.2088 123.883 22.3316 124.741 24.3503C125.976 27.2638 128.027 29.7404 130.685 31.5302C132.003 32.425 133.448 33.1118 134.975 33.5905C138.554 34.6935 142.51 34.5478 145.984 33.1534C147.868 32.4042 149.584 31.3012 151.07 29.9277C151.594 29.4282 151.907 28.7623 151.928 28.0547L151.97 28.013Z" fill="#004098"/>
<path d="M181.314 22.3108C181.314 20.6459 180.979 19.0226 180.309 17.5034C179.346 15.3182 177.777 13.4452 175.746 12.1133C174.742 11.4473 173.632 10.927 172.46 10.5732C169.656 9.71995 166.579 9.86563 163.879 10.9894C161.64 11.9051 159.735 13.4452 158.354 15.4222C157.663 16.4212 157.119 17.5034 156.763 18.648C156.386 19.8342 156.198 21.0621 156.198 22.3108V22.4357C156.219 25.6614 157.538 28.6998 159.861 30.9891C162.226 33.32 165.386 34.5894 168.735 34.5894C175.663 34.5894 181.293 29.0953 181.293 22.3108H181.314ZM161.619 22.3108C161.619 21.3951 161.807 20.5002 162.163 19.6469C162.686 18.4191 163.586 17.3785 164.737 16.6085C165.323 16.2339 165.951 15.9425 166.6 15.7344C168.191 15.2558 169.97 15.339 171.519 15.9633C172.795 16.4836 173.884 17.3577 174.658 18.4815C175.035 19.0434 175.349 19.6469 175.537 20.2713C175.746 20.9164 175.851 21.6032 175.851 22.29V23.2265H175.788C175.307 26.5771 172.335 29.1577 168.735 29.1577C164.8 29.1577 161.619 26.0776 161.619 22.29V22.3108Z" fill="#004098"/>
<path d="M202.787 11.4057C199.418 9.42859 195.357 9.36616 191.946 11.26L191.674 11.4057L191.506 11.1559C191.004 10.3235 190.146 9.84482 189.183 9.84482C187.676 9.84482 186.462 11.0519 186.462 12.5503V31.114C186.462 32.6124 187.676 33.8194 189.183 33.8194C190.69 33.8194 191.904 32.6124 191.904 31.114V20.3753C191.904 17.4201 194.164 15.7552 196.404 15.4014C198.664 15.0476 201.364 16.005 202.306 18.8769C202.453 19.3556 202.536 19.855 202.536 20.3753V31.3637C202.683 32.7789 203.834 33.8402 205.257 33.8402C206.68 33.8402 207.832 32.7789 207.957 31.3637V31.1348V31.0307V20.3753C207.957 16.6501 206.011 13.3203 202.787 11.4265V11.4057Z" fill="#004098"/>
<path d="M225.81 9.55346C224.01 9.55346 222.21 9.92807 220.473 10.6981C215.91 12.7168 213.085 17.0039 213.085 21.8737C213.085 23.5386 213.42 25.1619 214.089 26.702C215.052 28.908 216.643 30.781 218.694 32.1129C219.72 32.7789 220.829 33.2991 222.001 33.6529C223.215 34.0067 224.471 34.194 225.747 34.194C227.317 34.194 228.845 33.9235 230.289 33.3616C231.608 32.8621 232.822 32.1545 233.91 31.2596L234.098 31.0723C234.705 30.5521 235.04 29.8237 235.04 29.0328C235.04 27.5344 233.826 26.3274 232.319 26.3274C231.67 26.3274 231.063 26.5563 230.54 26.9933L230.31 27.2014C229.724 27.6593 229.075 28.0339 228.364 28.2836C226.626 28.9288 224.617 28.908 222.901 28.2004C221.603 27.6801 220.515 26.806 219.72 25.6822C219.322 25.1203 219.029 24.5168 218.82 23.8924C218.61 23.2265 218.506 22.5605 218.506 21.8529C218.506 19.1267 220.117 16.7334 222.692 15.5887C225.329 14.4233 228.259 14.8187 230.415 16.5877L230.645 16.775C231.147 17.2328 231.796 17.4826 232.445 17.4826C233.952 17.4826 235.166 16.2755 235.166 14.7771C235.166 14.0071 234.852 13.2995 234.266 12.7792L234.035 12.5711C231.67 10.5524 228.761 9.51184 225.789 9.51184L225.81 9.55346Z" fill="#004098"/>
<path d="M251.156 9.88644C248.016 9.88644 245.065 11.1559 242.826 13.4868C240.566 15.8177 239.331 18.8977 239.331 22.1651C239.331 23.8092 239.603 25.37 240.126 26.8268C240.545 27.9506 241.11 28.9704 241.821 29.8861C242.365 30.5937 242.993 31.2388 243.684 31.8007C244.751 32.654 245.986 33.32 247.326 33.757C250.005 34.6311 253.228 34.7351 256.263 33.5697C257.644 33.0286 258.9 32.2794 259.988 31.3637L260.156 31.1972C260.742 30.6769 261.056 29.9693 261.056 29.1993C261.056 27.7009 259.842 26.4939 258.335 26.4939C257.686 26.4939 257.037 26.7436 256.535 27.2014L256.305 27.3887C255.719 27.8466 255.007 28.2628 254.274 28.5334C253.458 28.8455 252.558 29.0328 251.763 29.0328C250.591 29.0328 249.523 28.8455 248.602 28.4709C247.975 28.2212 247.43 27.8882 246.949 27.4928C246.258 26.9101 245.714 26.1609 245.337 25.266C244.94 24.3503 244.751 23.3097 244.751 22.1651C244.751 18.4399 247.682 15.2974 251.156 15.2974C253.877 15.2974 256.033 16.6501 257.079 19.0226L257.267 19.4596H249.942C248.435 19.4596 247.221 20.6667 247.221 22.1651C247.221 23.6635 248.435 24.8706 249.942 24.8706H260.407C261.914 24.8706 263.128 23.6635 263.128 22.1651C263.128 15.1725 257.979 9.90726 251.156 9.90726V9.88644Z" fill="#004098"/>
<path d="M280.227 10.9062C277.967 10.9062 275.769 11.5305 273.865 12.7376L273.572 12.9249L273.425 12.6127C272.965 11.6554 272.023 11.0727 270.976 11.0727C269.469 11.0727 268.255 12.2797 268.255 13.7781V14.0903V41.1034C268.255 42.6018 269.469 43.8088 270.976 43.8088C272.483 43.8088 273.697 42.6018 273.697 41.1034V32.7372L274.179 33.0078C275.999 34.09 278.113 34.6519 280.248 34.6519C286.82 34.6519 292.178 29.3242 292.178 22.7894C292.178 16.2547 286.82 10.927 280.248 10.927L280.227 10.9062ZM280.227 29.2617C276.627 29.2617 273.697 26.3482 273.697 22.7686C273.697 19.1891 276.627 16.2755 280.227 16.2755C283.827 16.2755 286.757 19.1891 286.757 22.7686C286.757 26.3482 283.827 29.2617 280.227 29.2617Z" fill="#004098"/>
<path d="M301.115 31.9256C302.936 33.4864 305.552 34.1108 308.671 33.6945L308.922 33.6529C310.24 33.4656 311.245 32.321 311.245 30.9891C311.245 29.4907 310.031 28.2836 308.524 28.2836C308.399 28.2836 308.273 28.2836 308.168 28.3252L307.854 28.3669C306.347 28.5333 305.322 28.3669 304.673 27.8049C304.129 27.3263 303.857 26.5979 303.857 25.599V14.8603H308.357C309.864 14.8603 311.078 13.6533 311.078 12.1549C311.078 10.6564 309.864 9.44939 308.357 9.44939H303.857V3.45574C303.857 1.95733 302.643 0.750275 301.136 0.750275C299.629 0.750275 298.415 1.95733 298.415 3.45574V9.44939H296.259C294.752 9.44939 293.538 10.6564 293.538 12.1549C293.538 13.6533 294.752 14.8603 296.259 14.8603H298.415V25.4533C298.415 28.1587 299.378 30.4688 301.094 31.9464L301.115 31.9256Z" fill="#004098"/>
<path d="M324.598 19.1891C324.012 19.0434 323.552 18.9394 323.217 18.8353C322.735 18.6688 321.584 18.211 321.354 17.6282C321.333 17.545 321.312 17.4618 321.291 17.3161C321.291 16.1298 321.773 15.339 324.159 15.339C325.917 15.339 327.11 15.9217 328.051 16.3796C328.324 16.5044 328.575 16.6293 328.847 16.7334C329.203 16.8998 329.579 16.9831 329.956 17.0039C329.956 17.0039 330.019 17.0039 330.061 17.0039C331.505 17.0039 332.719 15.7968 332.719 14.2984C332.719 13.2995 332.154 12.3838 331.254 11.9051C331.233 11.9051 331.212 11.8635 331.17 11.8427C330.207 11.3432 329.307 10.9686 328.449 10.6565C324.891 9.4286 321.145 9.71995 318.696 11.4473C316.833 12.7584 315.849 14.7563 315.849 17.2328C315.849 20.9164 318.487 23.3513 323.656 24.5168C325.561 24.9122 327.884 25.599 328.261 26.5563C328.282 26.6395 328.324 26.7436 328.324 26.9309C328.324 28.1796 327.151 28.908 325.1 28.908C322.693 28.908 320.956 28.0339 319.47 27.0558C319.428 27.0558 319.387 27.0558 319.366 27.0141C318.926 26.7228 318.403 26.5771 317.901 26.5771C316.394 26.5771 315.18 27.7842 315.18 29.2826C315.18 30.3023 315.766 31.218 316.687 31.6759C319.575 33.5073 322.17 34.2981 325.121 34.2981C330.228 34.2981 333.786 31.2596 333.786 26.9309C333.786 21.3327 327.821 19.9175 324.619 19.1683L324.598 19.1891Z" fill="#004098"/>
<path d="M86.9418 54.1313C86.9418 57.5235 84.7652 60.0001 81.1443 60.0001C77.7747 60.0001 75.3468 58.0022 75.3468 54.277H77.7956C77.7956 56.5246 78.8839 57.6692 81.1234 57.6692C83.3629 57.6692 84.4512 56.1084 84.4512 54.1313V48.9285H80.4746V46.6184H86.9418V54.1313Z" fill="#004098"/>
<path d="M103.393 57.253H96.4858L95.3556 59.7295H92.6557L98.5788 46.6184H101.3L107.223 59.7295H104.502L103.393 57.253ZM99.9392 49.3655L97.4904 54.943H102.388L99.9392 49.3655Z" fill="#004098"/>
<path d="M119.927 55.8587H116.201V59.7295H113.711V46.6184C115.783 46.6184 117.855 46.6184 119.927 46.6184C126.373 46.6184 126.394 55.9003 119.927 55.9003V55.8587ZM116.201 53.5902H119.927C123.108 53.5902 123.087 48.9493 119.927 48.9493H116.201V53.5902Z" fill="#004098"/>
<path d="M140.124 57.253H133.217L132.087 59.7295H129.387L135.31 46.6184H138.031L143.954 59.7295H141.233L140.124 57.253ZM136.671 49.3655L134.222 54.943H139.119L136.671 49.3655Z" fill="#004098"/>
<path d="M159.024 46.5976H161.514V59.7295H159.966L153.038 50.8847V59.7295H150.547V46.6184H152.556L159.024 54.7556V46.5976Z" fill="#004098"/>
<path d="M328.827 59.2544C327.845 59.2544 327.002 59.0879 326.298 58.7549C325.605 58.4219 324.976 57.9224 324.41 57.2565L325.969 55.7064C326.327 56.1772 326.742 56.5446 327.216 56.8087C327.689 57.0613 328.267 57.1876 328.948 57.1876C329.56 57.1876 330.045 57.067 330.403 56.8259C330.772 56.5848 330.957 56.2518 330.957 55.827C330.957 55.4595 330.853 55.161 330.645 54.9314C330.437 54.7017 330.16 54.5065 329.814 54.3458C329.479 54.185 329.104 54.0415 328.688 53.9152C328.284 53.7774 327.874 53.6224 327.458 53.4502C327.054 53.2779 326.679 53.0655 326.332 52.8129C325.997 52.5488 325.726 52.2158 325.518 51.814C325.31 51.4006 325.206 50.8839 325.206 50.2639C325.206 49.529 325.385 48.9033 325.743 48.3866C326.101 47.8699 326.592 47.4737 327.216 47.1982C327.839 46.9226 328.544 46.7848 329.329 46.7848C330.16 46.7848 330.911 46.9398 331.581 47.2498C332.25 47.5599 332.799 47.9617 333.226 48.4555L331.667 50.0055C331.309 49.6152 330.94 49.3281 330.559 49.1444C330.189 48.9607 329.768 48.8688 329.294 48.8688C328.752 48.8688 328.324 48.9722 328.012 49.1788C327.701 49.3855 327.545 49.684 327.545 50.0744C327.545 50.4074 327.649 50.6772 327.857 50.8839C328.064 51.0906 328.336 51.2686 328.671 51.4178C329.017 51.5671 329.392 51.7106 329.797 51.8484C330.212 51.9862 330.622 52.1412 331.026 52.3134C331.442 52.4857 331.817 52.7096 332.152 52.9851C332.499 53.2607 332.776 53.6167 332.984 54.053C333.191 54.4778 333.295 55.006 333.295 55.6375C333.295 56.7628 332.897 57.6469 332.1 58.2899C331.303 58.9329 330.212 59.2544 328.827 59.2544Z" fill="#004098"/>
<path d="M312.083 59.2544C311.101 59.2544 310.258 59.0879 309.554 58.7549C308.861 58.4219 308.232 57.9224 307.666 57.2565L309.225 55.7064C309.583 56.1772 309.999 56.5446 310.472 56.8087C310.945 57.0613 311.523 57.1876 312.204 57.1876C312.816 57.1876 313.301 57.067 313.659 56.8259C314.029 56.5848 314.213 56.2518 314.213 55.827C314.213 55.4595 314.109 55.161 313.902 54.9314C313.694 54.7017 313.417 54.5065 313.07 54.3458C312.735 54.185 312.36 54.0415 311.944 53.9152C311.54 53.7774 311.13 53.6224 310.714 53.4502C310.31 53.2779 309.935 53.0655 309.589 52.8129C309.254 52.5488 308.982 52.2158 308.775 51.814C308.567 51.4006 308.463 50.8839 308.463 50.2639C308.463 49.529 308.642 48.9033 309 48.3866C309.358 47.8699 309.848 47.4737 310.472 47.1982C311.096 46.9226 311.8 46.7848 312.585 46.7848C313.417 46.7848 314.167 46.9398 314.837 47.2498C315.507 47.5599 316.055 47.9617 316.482 48.4555L314.923 50.0055C314.566 49.6152 314.196 49.3281 313.815 49.1444C313.445 48.9607 313.024 48.8688 312.551 48.8688C312.008 48.8688 311.581 48.9722 311.269 49.1788C310.957 49.3855 310.801 49.684 310.801 50.0744C310.801 50.4074 310.905 50.6772 311.113 50.8839C311.321 51.0906 311.592 51.2686 311.927 51.4178C312.273 51.5671 312.649 51.7106 313.053 51.8484C313.469 51.9862 313.878 52.1412 314.283 52.3134C314.698 52.4857 315.074 52.7096 315.408 52.9851C315.755 53.2607 316.032 53.6167 316.24 54.053C316.448 54.4778 316.552 55.006 316.552 55.6375C316.552 56.7628 316.153 57.6469 315.357 58.2899C314.56 58.9329 313.469 59.2544 312.083 59.2544Z" fill="#004098"/>
<path d="M290.922 59.0821V46.9742H293.278V59.0821H290.922ZM292.654 59.0821V57.0153H299.392V59.0821H292.654ZM292.654 53.8979V51.9H298.786V53.8979H292.654ZM292.654 49.041V46.9742H299.306V49.041H292.654Z" fill="#004098"/>
<path d="M274.179 59.0821V46.9742H275.824L276.534 49.3166V59.0821H274.179ZM282.597 59.0821L275.374 49.7816L275.824 46.9742L283.047 56.2747L282.597 59.0821ZM282.597 59.0821L281.921 56.8086V46.9742H284.294V59.0821H282.597Z" fill="#004098"/>
<path d="M263.714 59.0821V46.9742H266.069V59.0821H263.714Z" fill="#004098"/>
<path d="M251.387 59.2544C250.405 59.2544 249.562 59.0879 248.858 58.7549C248.165 58.4219 247.536 57.9224 246.97 57.2565L248.529 55.7064C248.887 56.1772 249.303 56.5446 249.776 56.8087C250.249 57.0613 250.827 57.1876 251.508 57.1876C252.12 57.1876 252.605 57.067 252.963 56.8259C253.333 56.5848 253.517 56.2518 253.517 55.827C253.517 55.4595 253.413 55.161 253.206 54.9314C252.998 54.7017 252.721 54.5065 252.374 54.3458C252.039 54.185 251.664 54.0415 251.248 53.9152C250.844 53.7774 250.434 53.6224 250.018 53.4502C249.614 53.2779 249.239 53.0655 248.893 52.8129C248.558 52.5488 248.286 52.2158 248.079 51.814C247.871 51.4006 247.767 50.8839 247.767 50.2639C247.767 49.529 247.946 48.9033 248.304 48.3866C248.662 47.8699 249.152 47.4737 249.776 47.1982C250.4 46.9226 251.104 46.7848 251.889 46.7848C252.721 46.7848 253.471 46.9398 254.141 47.2498C254.811 47.5599 255.359 47.9617 255.786 48.4555L254.228 50.0055C253.87 49.6152 253.5 49.3281 253.119 49.1444C252.749 48.9607 252.328 48.8688 251.855 48.8688C251.312 48.8688 250.885 48.9722 250.573 49.1788C250.261 49.3855 250.105 49.684 250.105 50.0744C250.105 50.4074 250.209 50.6772 250.417 50.8839C250.625 51.0906 250.896 51.2686 251.231 51.4178C251.577 51.5671 251.953 51.7106 252.357 51.8484C252.773 51.9862 253.182 52.1412 253.587 52.3134C254.002 52.4857 254.378 52.7096 254.712 52.9851C255.059 53.2607 255.336 53.6167 255.544 54.053C255.752 54.4778 255.856 55.006 255.856 55.6375C255.856 56.7628 255.457 57.6469 254.661 58.2899C253.864 58.9329 252.773 59.2544 251.387 59.2544Z" fill="#004098"/>
<path d="M235.18 59.2543C234.222 59.2543 233.367 59.0476 232.617 58.6343C231.878 58.2094 231.294 57.6296 230.867 56.8947C230.44 56.1599 230.226 55.3274 230.226 54.3974V46.9742H232.582V54.4663C232.582 55.0059 232.692 55.471 232.911 55.8614C233.142 56.2517 233.454 56.556 233.846 56.7742C234.251 56.9809 234.695 57.0842 235.18 57.0842C235.677 57.0842 236.115 56.9809 236.496 56.7742C236.878 56.556 237.178 56.2517 237.397 55.8614C237.628 55.471 237.744 55.0117 237.744 54.4835V46.9742H240.117V54.4146C240.117 55.3447 239.903 56.1771 239.476 56.912C239.048 57.6353 238.465 58.2094 237.726 58.6343C236.999 59.0476 236.15 59.2543 235.18 59.2543Z" fill="#004098"/>
<path d="M215.215 59.0821V57.1703H218.384C218.95 57.1703 219.389 56.9981 219.701 56.6536C220.024 56.3092 220.186 55.9015 220.186 55.4308C220.186 55.1093 220.117 54.8165 219.978 54.5524C219.839 54.2883 219.632 54.0816 219.354 53.9324C219.089 53.7716 218.765 53.6912 218.384 53.6912H215.215V51.7967H218.125C218.61 51.7967 218.996 51.6761 219.285 51.435C219.585 51.1939 219.735 50.8322 219.735 50.3499C219.735 49.8562 219.585 49.4888 219.285 49.2477C218.996 49.0065 218.61 48.886 218.125 48.886H215.215V46.9742H218.402C219.21 46.9742 219.886 47.1235 220.428 47.422C220.983 47.7091 221.398 48.0937 221.675 48.576C221.953 49.0467 222.091 49.5634 222.091 50.126C222.091 50.815 221.878 51.412 221.45 51.9173C221.035 52.411 220.423 52.7784 219.614 53.0195L219.718 52.2617C220.619 52.5143 221.312 52.9334 221.797 53.519C222.293 54.0931 222.541 54.7878 222.541 55.603C222.541 56.246 222.38 56.8316 222.056 57.3598C221.745 57.8765 221.283 58.2956 220.671 58.6171C220.07 58.9271 219.337 59.0821 218.471 59.0821H215.215ZM213.483 59.0821V46.9742H215.821V59.0821H213.483Z" fill="#004098"/>
<path d="M196.238 55.7695V54.5524H198.12C198.505 54.5524 198.802 54.4567 199.01 54.2654C199.225 54.0663 199.333 53.7946 199.333 53.4501C199.333 53.1363 199.225 52.876 199.01 52.6693C198.802 52.455 198.505 52.3478 198.12 52.3478H196.238V51.0733H198.259C198.782 51.0733 199.24 51.1767 199.633 51.3833C200.033 51.5824 200.341 51.8579 200.557 52.2101C200.78 52.5622 200.892 52.9679 200.892 53.4272C200.892 53.9018 200.78 54.3151 200.557 54.6672C200.341 55.0117 200.033 55.2834 199.633 55.4825C199.233 55.6738 198.767 55.7695 198.236 55.7695H196.238ZM195.083 59.1452V51.0733H196.654V59.1452H195.083ZM199.518 59.1452L196.839 55.6547L198.282 55.2069L201.423 59.1452H199.518Z" fill="#004098"/>
<path d="M187.915 59.2716C187.322 59.2716 186.768 59.1644 186.252 58.9501C185.744 58.7358 185.297 58.4411 184.912 58.066C184.535 57.6832 184.239 57.2393 184.023 56.7341C183.808 56.2212 183.7 55.6739 183.7 55.0921C183.7 54.5104 183.804 53.9707 184.012 53.4731C184.227 52.9679 184.524 52.5278 184.901 52.1527C185.286 51.77 185.732 51.4753 186.24 51.2686C186.748 51.0542 187.299 50.9471 187.892 50.9471C188.492 50.9471 189.046 51.0542 189.554 51.2686C190.062 51.4753 190.505 51.77 190.882 52.1527C191.267 52.5278 191.567 52.9679 191.783 53.4731C191.999 53.9784 192.106 54.5218 192.106 55.1036C192.106 55.6854 191.999 56.2288 191.783 56.7341C191.567 57.2393 191.267 57.6832 190.882 58.066C190.505 58.4411 190.062 58.7358 189.554 58.9501C189.054 59.1644 188.507 59.2716 187.915 59.2716ZM187.892 57.8134C188.415 57.8134 188.869 57.6986 189.254 57.4689C189.639 57.2393 189.939 56.9216 190.155 56.5159C190.378 56.1102 190.49 55.6356 190.49 55.0921C190.49 54.6941 190.428 54.3305 190.305 54.0013C190.182 53.6722 190.005 53.3889 189.774 53.1516C189.543 52.9067 189.27 52.7192 188.954 52.589C188.638 52.4589 188.284 52.3938 187.892 52.3938C187.383 52.3938 186.933 52.5086 186.541 52.7383C186.156 52.9603 185.852 53.2741 185.628 53.6798C185.413 54.0855 185.305 54.5563 185.305 55.0921C185.305 55.4978 185.367 55.8691 185.49 56.2059C185.621 56.5427 185.798 56.8297 186.021 57.067C186.252 57.3043 186.525 57.488 186.841 57.6182C187.164 57.7483 187.514 57.8134 187.892 57.8134Z" fill="#004098"/>
<path d="M175.809 59.1452V51.0733H177.38V59.1452H175.809ZM176.964 55.8384V54.4491H181.052V55.8384H176.964ZM176.964 52.4512V51.0733H181.248V52.4512H176.964Z" fill="#004098"/>
</svg>
