<svg width="61" height="64" viewBox="0 0 61 64" fill="none" xmlns="http://www.w3.org/2000/svg">
<path fill-rule="evenodd" clip-rule="evenodd" d="M54.1808 51.7232C58.4445 46.4772 61 39.787 61 32.5C61 15.6553 47.3447 2 30.5 2C13.6553 2 0 15.6553 0 32.5C0 49.3447 13.6553 63 30.5 63C37.3672 63 43.7042 60.7305 48.8021 56.9006L56 59L54.1808 51.7232Z" fill="#004098"/>
<path d="M30.0538 47.4C28.0538 47.4 26.1871 47.0267 24.4538 46.28C22.7204 45.5333 21.2004 44.5067 19.8938 43.2C18.5871 41.8667 17.5604 40.3333 16.8138 38.6C16.0938 36.84 15.7338 34.96 15.7338 32.96C15.7338 30.96 16.0938 29.0933 16.8138 27.36C17.5604 25.6267 18.5738 24.1067 19.8538 22.8C21.1604 21.4667 22.6671 20.44 24.3737 19.72C26.1071 18.9733 27.9738 18.6 29.9738 18.6C31.9738 18.6 33.8271 18.9733 35.5338 19.72C37.2671 20.44 38.7871 21.4667 40.0938 22.8C41.4004 24.1067 42.4138 25.64 43.1338 27.4C43.8804 29.1333 44.2538 31 44.2538 33C44.2538 35 43.8804 36.88 43.1338 38.64C42.4138 40.3733 41.4004 41.8933 40.0938 43.2C38.8138 44.5067 37.3071 45.5333 35.5738 46.28C33.8671 47.0267 32.0271 47.4 30.0538 47.4ZM42.8538 48.92L30.2538 36.32L33.2138 33.36L45.8138 45.96L42.8538 48.92ZM29.9738 43C31.8671 43 33.5204 42.5733 34.9338 41.72C36.3738 40.8667 37.4938 39.6933 38.2938 38.2C39.1204 36.68 39.5338 34.9333 39.5338 32.96C39.5338 31.4933 39.2938 30.16 38.8138 28.96C38.3604 27.7333 37.7071 26.68 36.8538 25.8C36.0004 24.8933 34.9871 24.2 33.8138 23.72C32.6671 23.24 31.3871 23 29.9738 23C28.1071 23 26.4538 23.4267 25.0138 24.28C23.6004 25.1067 22.4804 26.2667 21.6538 27.76C20.8538 29.2533 20.4538 30.9867 20.4538 32.96C20.4538 34.4267 20.6804 35.7867 21.1338 37.04C21.6138 38.2667 22.2671 39.32 23.0938 40.2C23.9471 41.08 24.9604 41.7733 26.1338 42.28C27.3071 42.76 28.5871 43 29.9738 43Z" fill="white"/>
</svg>
